<svg xmlns="http://www.w3.org/2000/svg" xmlns:xlink="http://www.w3.org/1999/xlink" width="360" height="640"><style><![CDATA[.B{mask:url(#Z)}.C{fill:#1a1919}.D{fill:#fff}.E{mask:url(#V)}.F{fill:#fffffe}.G{mask:url(#d)}.H{mask:url(#b)}.I{fill:#9e9f9e}.J{mask:url(#X)}.K{fill:#8a8b8a}.L{fill:#3572ac}.M{fill:#738d8d}.N{fill:#e5702a}.O{fill:#b75225}.P{fill-rule:nonzero}]]></style><defs><path id="A" d="M.023.825h146.904v17.57H.023z"/><path d="M26.896.07l.028.47c-2.81 1.336-5.916 1.905-8.854 2.928-.843.293-1.715.655-2.263 1.36-.735.945-.618 2.018-.55 3.145.06 1.012-.005 2.04-.3 3.01L14.6 12.11c-.26 1.064.014 2.335.353 3.36.26.787.743 1.587 1.533 1.84.67.213 1.392-.017 2.046-.272 4.375-1.705 8.193-4.557 11.923-7.41.807-.617 1.707-1.266 2.722-1.214.17.01-1.022 1.248-1.116 1.323-.607.483-1.218.96-1.847 1.42-1.394 1.015-2.82 1.987-4.296 2.88-4.95 3-10.4 5.104-15.984 6.63-1.24.34-2.51.652-3.798.6s-2.61-.483-3.47-1.442c-.712-.796-1.037-1.86-1.27-2.904-.28-1.254-.46-2.55-.285-3.825.063-.46.17-.93.077-1.386-.077-.372-.283-.7-.448-1.044-.32-.666-.48-1.397-.52-2.13-.05-.9.038-1.89.357-2.745.34-.914.846-1.753 1.348-2.585.152-.253.34-.66.63-.765.318-.114.702-.112 1.03-.056 1.235.21 2.42.792 3.648 1.077 1.336.3 2.7.483 4.084.405 1.06-.06 2.102-.268 3.14-.5 2.166-.464 4.318-.993 6.452-1.587l3.187-.94C24.86.618 26.1-.09 26.896.07z" id="B"/><path d="M11.314 3.874c1.06-.06 2.102-.268 3.14-.5l6.452-1.587 3.187-.94C24.86.618 26.1-.09 26.896.07l.028.47c-2.81 1.336-5.916 1.905-8.854 2.928-.843.293-1.715.655-2.263 1.36-.735.945-.618 2.018-.55 3.145.06 1.012-.005 2.04-.3 3.01L14.6 12.11c-.26 1.064.014 2.335.353 3.36.26.787.743 1.587 1.533 1.84.67.213 1.392-.017 2.046-.272 4.375-1.705 8.193-4.557 11.923-7.41.807-.617 1.707-1.266 2.722-1.214.17.01-1.022 1.248-1.116 1.323-.607.483-1.218.96-1.847 1.42-1.394 1.015-2.82 1.987-4.296 2.88-4.95 3-10.4 5.104-15.984 6.63-1.24.34-2.51.652-3.798.6s-2.61-.483-3.47-1.442c-.712-.796-1.037-1.86-1.27-2.904-.28-1.254-.46-2.55-.285-3.825.063-.46.17-.93.077-1.386-.077-.372-.283-.7-.448-1.044-.32-.666-.48-1.397-.52-2.13-.05-.9.038-1.89.357-2.745.34-.914.846-1.753 1.348-2.585.152-.253.34-.66.63-.765.318-.114.702-.112 1.03-.056 1.235.21 2.42.792 3.648 1.077 1.336.3 2.7.483 4.084.405" id="C"/><path d="M26.896.07l.028.47c-2.81 1.336-5.916 1.905-8.854 2.928-.843.293-1.715.655-2.263 1.36-.735.945-.618 2.018-.55 3.145.06 1.012-.005 2.04-.3 3.01L14.6 12.11c-.26 1.064.014 2.335.353 3.36.26.787.743 1.587 1.533 1.84.67.213 1.392-.017 2.046-.272 4.375-1.705 8.193-4.557 11.923-7.41.807-.617 1.707-1.266 2.722-1.214.17.01-1.022 1.248-1.116 1.323-.607.483-1.218.96-1.847 1.42-1.394 1.015-2.82 1.987-4.296 2.88-4.95 3-10.4 5.104-15.984 6.63-1.24.34-2.51.652-3.798.6s-2.61-.483-3.47-1.442c-.712-.796-1.037-1.86-1.27-2.904-.28-1.254-.46-2.55-.285-3.825.063-.46.17-.93.077-1.386-.077-.372-.283-.7-.448-1.044-.32-.666-.48-1.397-.52-2.13-.05-.9.038-1.89.357-2.745.34-.914.846-1.753 1.348-2.585.152-.253.34-.66.63-.765.318-.114.702-.112 1.03-.056 1.235.21 2.42.792 3.648 1.077 1.336.3 2.7.483 4.084.405 1.06-.06 2.102-.268 3.14-.5 2.166-.464 4.318-.993 6.452-1.587l3.187-.94" id="D"/><path id="E" d="M21.203 9.783h-.44l-4.036 4.035h.44l4.036-4.035"/><path id="F" d="M23.134 9.783h-.442l-4.036 4.035h.44l4.037-4.035"/><path id="G" d="M22.896 14.883h-.442l-4.036 4.036h.44l4.037-4.036"/><path id="H" d="M32.554 11.513l-.583.583h.442l.583-.583h-.442"/><path id="I" d="M33.525 11.513l-.583.583h.44l.583-.583h-.44"/><path id="J" d="M31.595 11.513l-.583.583h.442l.583-.583h-.44"/><path id="K" d="M7.6 12.366l-.594.593v.44l.594-.593v-.44"/><path id="L" d="M7.6 19.092l-.594.593v.442l.594-.593v-.442"/><path id="M" d="M22.375 11.513h-.44l-.583.583h.44l.583-.583"/><path id="N" d="M7.6 1.236v-.44l-.594.593v.44l.594-.593"/><path id="O" d="M7.6 7.016v-.442l-.594.593v.442l.594-.593"/><path id="P" d="M17.554 11.513h-.44l-.583.583h.442l.583-.583"/><path id="Q" d="M22.034 19.592v-.442l-.56.56v.44l.56-.56"/><path id="R" d="M22.034 18.62v-.442l-.56.56v.442l.56-.56"/><path id="S" d="M22.034 6.075v-.44l-.56.56v.442l.56-.56"/></defs><g transform="translate(16 20)" fill="none" fill-rule="evenodd"><g class="P"><g class="D"><path d="M77.486 12.15L81.393 2c.105-.3.105-.3.393-.3l3.934-.026h.262c.13 0 .184.08.2.184a.24.24 0 0 1-.157.29c-.157.053-.315.053-.472.08-.105.026-.236.026-.34.053-.55.13-.787.446-.84.997V15c.026.525.288.945.892 1.024l.656.105c.13.026.236.08.236.236s-.08.236-.262.263c-.315.026-.63.026-.944.026-.2 0-.393-.026-.603-.026-.446 0-.892-.026-1.337-.026l-2.963.053c-.105 0-.2 0-.315-.026-.157-.026-.262-.13-.262-.263s.105-.184.2-.236c.13-.053.236-.053.367-.053.052 0 .13 0 .184-.026.63-.105 1.023-.394 1.023-1.18V3.46c-.13.157-.157.3-.2.42L76.778 15.1l-.498 1.286c-.052.105-.08.2-.236.2s-.184-.105-.236-.2l-4.773-12.05c-.026-.08-.052-.2-.184-.3v9.056c0 .604.08 1.18.288 1.76.262.683.787 1.102 1.495 1.234.105.026.184.026.288.053.13.026.184.105.184.236s-.052.184-.157.236c-.236.08-.498.053-.76.053l-1.914-.053-1.652.053c-.105 0-.236 0-.34-.026-.13-.026-.184-.13-.2-.263 0-.13.08-.2.2-.236.08-.026.157-.026.236-.053.84-.157 1.337-.656 1.6-1.47.157-.55.2-1.102.2-1.68v-9.45c0-.184-.052-.315-.13-.473-.34-.55-.84-.788-1.47-.866-.13-.026-.262 0-.367-.052s-.2-.13-.157-.263c.026-.13.105-.184.262-.184H69.7l3.12.026c.393 0 .315-.052.472.315l2.203 5.51 1.652 4.174c.184.157.236.262.34.472l-.001.003h0zM26.802 1.676h3.12c.13.026.184.105.2.2.026.13-.026.2-.13.262-.13.08-.315.053-.446.105-.105.026-.236.026-.34.052-.498.105-.787.367-.865 1.024v11.55c0 .34.052.682.315.945.2.2.498.262.787.3.157.026.315.026.472.053.13.053.236.105.236.263 0 .13-.105.236-.262.262-.315.026-.63.026-.944.026-.184 0-.367-.026-.524-.026-.42 0-.865-.026-1.285-.026-.787-.026-1.6.026-2.386.053h-.84c-.08 0-.157 0-.2-.026a.23.23 0 0 1-.184-.236c0-.13.052-.2.157-.236l.315-.08c.184-.026.367-.026.524-.08.498-.13.76-.446.787-.97V9.42c0-.367 0-.34-.34-.34h-4.93c-.105 0-.157.053-.157.157v5.723c0 .788.367 1.102 1.05 1.18.157.026.34.026.498.053.13.052.236.105.236.262 0 .13-.08.236-.262.263-.315.026-.63.026-.944.026-.236 0-.472-.026-.682-.026-.577.026-1.18-.08-1.757-.053l-2.44.053c-.105 0-.2 0-.315-.026-.13-.026-.236-.08-.236-.236s.105-.2.236-.262c.2-.053.42-.053.63-.08.656-.08.918-.525.944-1.13V3.62c0-.13 0-.262-.026-.394-.105-.63-.42-.84-.944-.92-.157-.026-.315-.052-.472-.052-.052 0-.13-.026-.184-.052-.105-.053-.184-.13-.184-.263.026-.13.105-.2.236-.2h.2l2.308.026 3.698-.025c.13.026.236.105.236.262 0 .13-.08.2-.2.236l-.524.08c-.236.026-.472.08-.656.2-.262.2-.393.5-.393.84v4.96c0 .262 0 .262.262.262H25.1c.262 0 .262 0 .262-.262V3.382c0-.656-.367-1.024-1.05-1.076-.157-.026-.315-.026-.472-.052-.2-.026-.288-.13-.262-.3s.08-.2.288-.2h1.94c.262-.08.63-.08.997-.08l-.001.002zm65.395 0h5.035c.315 0 .315 0 .393.315l1.023 4.12a.96.96 0 0 1 .052.29c.026.105-.026.184-.13.236-.08.026-.157 0-.2-.08a.97.97 0 0 1-.131-.289c-.34-.76-.708-1.47-1.18-2.152-.813-1.102-1.94-1.68-3.304-1.837-.656-.08-1.285-.08-1.94-.08-.236 0-.236 0-.236.236v5.828c0 .3 0 .3.288.3.682.026 1.337-.157 1.862-.63.42-.367.656-.814.813-1.312a2.96 2.96 0 0 0 .131-.84c0-.105.026-.184.052-.3.052-.184.13-.236.288-.2s.184.13.184.262v6.85c0 .105-.026.184-.157.2s-.236 0-.288-.13-.052-.262-.08-.394c-.026-.55-.105-1.076-.367-1.575a2.32 2.32 0 0 0-2.229-1.391c-.498 0-.498 0-.498.525v5.302c.026.7.42 1.13 1.128 1.234a5.53 5.53 0 0 0 1.862-.105c1.573-.34 2.7-1.286 3.54-2.625a8.61 8.61 0 0 0 .865-1.943c.026-.13.08-.236.105-.367.026-.105.13-.157.236-.157.13.026.184.13.184.262a3.22 3.22 0 0 1-.052.499l-.918 4.778c-.052.236-.052.236-.288.236-1.888-.026-3.803 0-5.7-.026l-2.806-.026-2.518.053c-.105 0-.236 0-.34-.026s-.2-.105-.2-.236.08-.2.2-.236c.157-.052.34-.052.498-.08.262-.026.498-.08.708-.236.288-.2.367-.525.393-.866V3.566a3.22 3.22 0 0 0-.052-.499.88.88 0 0 0-.656-.7c-.236-.08-.498-.08-.734-.13-.08-.026-.13-.026-.2-.052-.105-.053-.157-.13-.13-.262.026-.105.08-.184.2-.2h.288l5-.026.006-.02v-.001zm-56.217 0h5.114c.157-.026.236.053.288.2l1.075 4.305c.026.08.026.157.026.236s-.026.157-.105.157-.157.026-.2-.053a.97.97 0 0 1-.131-.289 11.56 11.56 0 0 0-1.05-1.942c-.84-1.26-2.045-1.916-3.514-2.074-.63-.08-1.26-.052-1.888-.052-.262 0-.262 0-.262.262V8.28c0 .236 0 .236.236.263.524.026 1.05-.053 1.52-.315.76-.42 1.154-1.102 1.3-1.942.052-.236.052-.473.08-.7.026-.2.105-.3.262-.3.13 0 .2.053.2.184a1.13 1.13 0 0 1 .026.3v6.694c-.026.105-.08.184-.2.184s-.2-.026-.236-.157c-.052-.184-.052-.34-.052-.525-.052-.656-.2-1.312-.603-1.864-.472-.656-1.1-.945-1.888-.997h-.42c-.236 0-.236 0-.236.262v5.224a2.59 2.59 0 0 0 .079.63c.105.55.472.866 1.1.945.918.13 1.783-.026 2.65-.367 1.337-.525 2.282-1.523 2.963-2.782.288-.55.524-1.13.682-1.733.026-.08.026-.157.08-.236s.13-.157.236-.105c.105.026.157.105.157.2a3.26 3.26 0 0 1-.079.709l-.865 4.54c-.052.3-.052.315-.367.3-1.573-.026-3.173 0-4.747-.026-1.154 0-2.282-.08-3.435-.026l-2.754.052c-.105 0-.236 0-.34-.026a.23.23 0 0 1-.184-.236c0-.13.052-.2.157-.236l.34-.08.55-.08a.86.86 0 0 0 .708-.735c.052-.184.052-.394.052-.604V3.62a2.38 2.38 0 0 0-.08-.604.89.89 0 0 0-.708-.735c-.236-.053-.446-.053-.682-.105-.052-.026-.13-.026-.184-.026-.13-.026-.2-.13-.184-.262a.25.25 0 0 1 .2-.236h.288l5.025.024zm131.853 9.646c.052-.157.052-.262.052-.367v-6.1a5.13 5.13 0 0 0-.184-1.418c-.262-.866-.787-1.47-1.757-1.55-.08 0-.13-.026-.2-.026-.026 0-.052 0-.105-.026-.13-.053-.184-.13-.157-.263s.105-.184.2-.184h4.878c.184 0 .262.053.262.2s-.08.236-.236.262c-.105.026-.2.026-.315.053-.734.052-1.233.473-1.547 1.13a3.07 3.07 0 0 0-.288 1.076c-.052.367-.052.735-.052 1.103v11.05c0 .13 0 .263-.026.42-.052.236-.184.3-.367.105-.052-.053-.105-.13-.157-.184l-9.336-12.495c-.105.053-.052.13-.052.2v9.004c0 .525.105 1.05.367 1.523.34.656.865 1.024 1.573 1.076.105 0 .236 0 .34.08.08.053.157.105.13.236-.026.105-.08.2-.2.2h-.63c-.262 0-.498-.026-.76-.026-.472 0-.97-.08-1.442-.026-.63.08-1.285 0-1.914.053-.08 0-.157 0-.262-.026s-.184-.08-.184-.184.026-.2.157-.236a.96.96 0 0 1 .288-.053c.892-.053 1.442-.55 1.757-1.365.184-.446.236-.92.236-1.4v-9.58c0-.184-.052-.315-.157-.473-.2-.263-.42-.525-.682-.735a2.28 2.28 0 0 0-1.101-.472c-.105-.026-.236-.026-.34-.053-.13-.026-.184-.13-.157-.262.026-.105.08-.184.2-.184h1.233l2.5.026h.656c.2-.026.315.052.446.2l5.114 6.773 1.993 2.625c.08.053.13.13.236.236l-.01.057zM100.137 13.4v-3.124c0-.13.08-.184.184-.2.105 0 .184.052.184.157l.13.604c.2 1.13.472 2.258 1.023 3.28.34.656.787 1.234 1.4 1.68.55.394 1.154.578 1.8.63.708.053 1.4-.026 2.02-.3 1.154-.446 1.73-1.444 1.678-2.678-.052-1.13-.682-1.864-1.626-2.362-.813-.446-1.705-.7-2.57-.998l-2.02-.814c-.55-.3-1.05-.63-1.416-1.13-.446-.578-.682-1.234-.734-1.942-.08-1.208.2-2.284.997-3.23.918-1.102 2.124-1.654 3.54-1.68 1.023-.026 1.993.2 2.9.604a2.79 2.79 0 0 0 .656.236c.393.08.577 0 .708-.367.052-.13.105-.236.262-.236.184 0 .2.13.236.3l.08.814.2 2.494.157 1.55v.184c-.026.08-.052.13-.13.157-.08 0-.157-.026-.184-.105-.052-.08-.08-.184-.105-.262a14.79 14.79 0 0 0-.918-2.336c-.315-.604-.682-1.155-1.18-1.6-.472-.446-1.05-.7-1.705-.84-.63-.105-1.26-.13-1.888.052-.577.158-1.05.473-1.337.998-.393.76-.472 1.785.2 2.494.34.367.813.604 1.26.788.892.367 1.836.604 2.727.92.682.236 1.337.5 1.94.866 1.364.814 2.02 2.02 2.045 3.622.026 1.286-.367 2.44-1.206 3.413-.813.945-1.836 1.496-3.042 1.76a5.96 5.96 0 0 1-3.75-.42c-.34-.157-.656-.315-1.023-.42-.472-.157-.918-.026-1.128.42 0 .026-.026.053-.052.08-.08.105-.157.2-.288.184-.157-.053-.105-.184-.105-.3l.052-2.94.028-.003zM10.207 2.28v12.206a2.89 2.89 0 0 0 .105.814c.13.473.446.7.918.814.2.053.42.08.63.08h.184c.13.026.236.105.2.262 0 .157-.08.236-.236.236H11c-.184 0-.367-.026-.577-.026-.524 0-1.075-.026-1.6-.026l-3.226.052h-.262c-.184-.026-.262-.105-.262-.236 0-.157.105-.262.288-.3.184 0 .367-.026.55-.053.708-.105 1.075-.472 1.18-1.18.026-.105.026-.236.026-.34V2.28c-.157-.026-.288.052-.393.08-1.652.578-2.9 1.627-3.698 3.203l-.393.866c-.052.105-.105.184-.157.262s-.13.105-.2.08c-.105-.026-.105-.105-.13-.184-.026-.263.052-.525.08-.788l.684-4.043c0-.026.025-.052.025-.08.08-.34.2-.394.498-.184.2.157.42.2.682.2h9.152c.262 0 .472-.053.656-.2.026-.026.08-.052.105-.08.2-.105.315-.053.367.157l.13.683.682 4.016c.026.105.026.236.026.34 0 .08-.026.158-.105.158-.08.026-.13 0-.2-.053-.08-.08-.105-.157-.157-.236l-.55-1.13c-.865-1.575-2.203-2.573-3.907-3.097-.026 0-.052.026-.105.026l-.012.004zm42.942 0c-.157 0-.262.026-.393.08-1.862.63-3.173 1.864-3.96 3.675l-.236.55a.8.8 0 0 1-.131.184c-.052.052-.13.08-.2.052s-.13-.105-.105-.2c.026-.184.026-.367.08-.55l.734-4.28c0-.052.026-.13.026-.184.052-.2.2-.3.367-.157.315.3.682.3 1.05.3h8.785c.288 0 .55-.053.787-.236.262-.184.393-.13.446.184l.367 2.047.42 2.468c.026.13.026.262.026.394 0 .105-.026.184-.13.2s-.184-.026-.236-.105c-.157-.262-.262-.525-.393-.788-.84-1.837-2.23-3.02-4.143-3.622h-.105c-.08.08-.052.157-.052.236v11.786a3.46 3.46 0 0 0 .105.892c.13.473.42.788.892.92.184.053.393.08.577.08h.2c.157.026.262.105.262.262s-.08.236-.262.263c-.315.026-.656 0-.97 0-.184 0-.367-.026-.524-.026-.63.026-1.233-.052-1.862-.026l-3.042.053h-.262c-.184-.026-.262-.105-.236-.263 0-.157.08-.236.262-.262.2 0 .42-.026.63-.053.603-.08.97-.42 1.1-1.024a3.03 3.03 0 0 0 .079-.682V2.608c.052-.105.052-.2.052-.315l-.005-.013zm83.64-.604h5.14c.157-.026.236.053.262.2l1.075 4.33c.052.236.026.34-.105.367s-.2-.026-.315-.236c-.34-.76-.708-1.522-1.206-2.205-.813-1.13-1.967-1.733-3.33-1.9-.656-.08-1.3-.08-1.967-.08-.236 0-.236 0-.236.236v5.828c0 .3 0 .3.288.3.813.026 1.52-.2 2.072-.814.472-.5.708-1.103.734-1.785 0-.157.052-.315.052-.473.026-.13.105-.2.236-.184.13 0 .184.052.2.184.026.08.026.157.026.236v6.458c0 .105 0 .184-.026.3-.026.13-.105.157-.236.157s-.2-.052-.2-.184c-.026-.157-.052-.315-.052-.473a3.84 3.84 0 0 0-.42-1.627c-.446-.814-1.154-1.207-2.072-1.26-.184 0-.42-.08-.55.026-.157.13-.052.367-.052.578v5.17a2.55 2.55 0 0 0 .026.446c.105.446.367.7.813.788a6.4 6.4 0 0 0 .708.105c.13.026.236.08.236.236s-.08.236-.262.262c-.315.026-.603.026-.918.026-.288-.026-.577-.026-.892-.026-.367 0-.734-.026-1.1-.026l-1.73.026-1.4-.053c-.105 0-.184-.026-.288-.052-.08-.026-.13-.053-.13-.157 0-.08.026-.13.105-.184a1.43 1.43 0 0 1 .367-.105c.157-.026.34-.026.498-.08.524-.105.813-.446.84-.997V3.4c0-.3-.026-.578-.2-.814s-.472-.34-.76-.394c-.157-.026-.34-.026-.498-.053-.236-.026-.34-.13-.315-.262 0-.157.13-.236.367-.236h1.757l2.832.026c.262.026.446.026.63 0l-.004.01v-.001zm50.76-.25h3.147c.105.026.184.08.2.2 0 .13-.052.236-.184.262l-.472.08a1.05 1.05 0 0 0-.393.079c-.472.13-.708.446-.734.945v11.9c.052.42.236.735.656.866.2.053.393.105.603.105a.78.78 0 0 1 .34.08c.105.026.184.105.157.236a.23.23 0 0 1-.184.236c-.08.026-.157.026-.236.026-.84-.026-1.678 0-2.518-.052-.315-.026-.63-.053-.944.026h-.157l-2.098.026c-.105 0-.236 0-.34-.026-.105-.053-.184-.105-.184-.236a.23.23 0 0 1 .184-.236l.315-.08.446-.052c.603-.105.84-.473.892-1.024V3.08c-.08-.76-.393-.97-.97-1.076a3.21 3.21 0 0 0-.498-.052c-.08 0-.13-.026-.2-.08s-.13-.13-.105-.236.08-.184.184-.2c.08-.026.184-.026.288-.026l2.806.026v-.01h-.001zM66.052 9.184v5.644c0 .184 0 .34.052.525a.9.9 0 0 0 .734.7l.498.08a.78.78 0 0 1 .34.08c.105.026.157.105.157.236s-.052.2-.157.236-.2.026-.315.026c-.577 0-1.154 0-1.73-.026-1.285-.08-2.596.026-3.88.026-.105 0-.236 0-.34-.026-.13-.026-.2-.105-.2-.236s.08-.2.184-.262c.105-.026.2-.053.315-.053s.184 0 .288-.026c.55-.105.944-.236 1.023-1.102 0-.105.026-.2.026-.315V3.67c0-.13 0-.262-.026-.42-.052-.578-.34-.892-.918-.997l-.603-.08c-.184-.026-.288-.13-.288-.262 0-.158.105-.236.315-.236h6.136c.105.026.184.08.2.2s-.026.236-.157.262a1.51 1.51 0 0 1-.498.08c-.13.026-.236.026-.367.053-.42.105-.656.34-.734.76-.026.158-.026.34-.026.5l-.026 5.644-.003.01zm85.6-7.73h2.885c.288 0 .42.08.42.262 0 .157-.105.236-.393.262l-.577.08c-.446.08-.682.367-.787.788a3.22 3.22 0 0 0-.052.499V14.5c0 .2 0 .394.052.604a.84.84 0 0 0 .708.7c.184.052.34.052.524.08.105.026.236.026.34.053s.157.13.157.236-.052.2-.184.236c-.105.026-.2.026-.315.026-.603 0-1.206 0-1.836-.026-1.26-.08-2.544.053-3.803.026-.105 0-.2 0-.315-.026-.13-.026-.236-.105-.2-.262 0-.13.08-.2.2-.236.236-.08.472-.053.708-.105.524-.13.787-.367.865-.92.026-.105.026-.236.026-.34V3.16c0-.76-.34-1.13-1.128-1.207L148.5 1.9c-.184-.052-.236-.13-.236-.3s.08-.2.288-.2h1.993c.393.053.734.053 1.1.053l.006.001h.01z"/><path d="M173.552 1.443l3.2-.026c1.836.052 3.514.604 4.956 1.8 1.075.92 1.757 2.048 2.15 3.413.315 1.13.367 2.284.262 3.465-.105 1.024-.34 2.02-.813 2.94-.918 1.785-2.36 2.86-4.3 3.255-.84.157-1.678.157-2.5.13-.734-.026-1.442 0-2.177-.026l-1.914-.026-2.5.053c-.105 0-.2 0-.315-.026s-.184-.08-.184-.2.026-.236.157-.263a.96.96 0 0 1 .288-.053c.08 0 .157 0 .262-.026.76-.105 1.075-.446 1.075-1.234V3.097c-.026-.683-.34-.998-1.023-1.102-.184-.026-.367-.026-.524-.08-.184-.052-.288-.184-.2-.34.052-.157.184-.157.315-.157h1.783l1.993.026.01-.001h-.001zm.708 11.63l.026.92c.08.92.498 1.523 1.4 1.785.708.2 1.442.184 2.177-.026 1.05-.315 1.73-1.024 2.23-1.943.55-1.024.787-2.152.865-3.307s.08-2.3-.105-3.44c-.157-1.05-.446-2.074-1.023-2.992-.656-1.05-1.547-1.76-2.754-1.995-.865-.184-1.757-.08-2.622-.105-.08 0-.13.052-.13.13v6.038l-.052 4.935h-.012zM123.384 1.36a7.42 7.42 0 0 1 4.196 1.181 7.63 7.63 0 0 1 2.596 2.809c.787 1.444 1.075 2.966.918 4.594-.157 1.76-.813 3.307-2.02 4.594a7.23 7.23 0 0 1-4.799 2.389c-1.678.184-3.278-.105-4.747-.945-1.573-.892-2.65-2.205-3.33-3.86a7.95 7.95 0 0 1-.551-3.491c.13-1.942.84-3.65 2.23-5.066a7.28 7.28 0 0 1 4.458-2.18c.34-.026.682-.026 1.05-.026h-.001 0zm-4.04 10.736c.2.997.524 1.942 1.1 2.783.813 1.13 1.888 1.706 3.304 1.55.997-.105 1.757-.578 2.36-1.34.682-.866 1.05-1.864 1.26-2.914.236-1.18.34-2.4.262-3.622l-.13-1.733c-.157-.97-.393-1.916-.865-2.8-.315-.578-.708-1.102-1.233-1.496a3.18 3.18 0 0 0-2.203-.656c-.944.026-1.73.42-2.36 1.076s-1.023 1.47-1.285 2.362c-.393 1.26-.498 2.546-.498 3.65.026 1.208.08 2.18.288 3.15v-.01zm77.546-1.1h-1.985c-.17 0-.242.05-.3.23l-.605 1.9c-.12.54-.194 1.103-.097 1.668.097.513.387.924.823 1.154l.58.282c.073.05.17.103.145.205s-.097.128-.194.128c-.58-.026-1.186 0-1.767-.05a3.67 3.67 0 0 0-.751 0c-.63.05-1.26.026-1.9.05-.12 0-.218 0-.242-.154s.073-.23.194-.282c.048-.026.097-.026.145-.05.605-.154 1.065-.54 1.43-1.026.508-.667.872-1.4 1.162-2.18l1.598-4.566 1.2-3.515c.048-.128.097-.257.12-.385.048-.282-.024-.513-.266-.693-.363-.257-.363-.257 0-.54.678-.513 1.235-1.154 1.695-1.873.073-.128.12-.334.3-.308s.17.23.242.36l3.196 8.645 1.72 4.695a4.42 4.42 0 0 0 .363.77c.242.36.557.616.968.718.048.026.12.026.17.05.097.026.145.077.145.205s-.097.154-.194.154h-.702c-.12 0-.242-.026-.387-.026-.533 0-1.04-.026-1.574-.026l-2.615.05h-.242c-.12 0-.194-.05-.194-.18-.024-.128.073-.18.17-.205l.46-.103c.097-.026.218-.05.315-.103a.74.74 0 0 0 .412-.641c.024-.36-.048-.693-.17-1.026l-1.138-3.13c-.048-.154-.12-.18-.266-.18L196.9 11v.006-.01zM196.926 5L195 10.6h3.996l-2.08-5.6h.01z"/></g><path d="M36.76 91.76v4.138c0 .914-.74 1.655-1.655 1.655H16.897c-.914 0-1.655-.74-1.655-1.655V91.76H4.556C8.623 99.875 16.922 105 26 105s17.377-5.125 21.444-13.24H36.76zM26 57A23.99 23.99 0 0 0 3.798 90.103H15.24v-4.138c0-.914.74-1.655 1.655-1.655h18.207c.914 0 1.655.74 1.655 1.655v4.138H48.2A23.99 23.99 0 0 0 26 57zm-6.62 22.345h-7.45a.83.83 0 0 1-.828-.828.83.83 0 0 1 .828-.828h7.448a.83.83 0 0 1 .828.828.83.83 0 0 1-.828.828h.002zm20.7 0h-7.46a.83.83 0 0 1-.828-.828.83.83 0 0 1 .828-.828h7.448a.83.83 0 0 1 .828.828.83.83 0 0 1-.828.828h.012z" fill="#000"/><path d="M48 193a2 2 0 0 0 2-2v-44a2 2 0 0 0-2-2H4a2 2 0 0 0-2 2v44a2 2 0 0 0 2 2h44z" fill="#39579a"/><path d="M27.52 193v-19H21v-7h6.52v-5.175c0-6.2 3.787-9.576 9.317-9.576 2.65 0 4.926.197 5.6.285v6.48l-3.836.002c-3.008 0-3.6 1.43-3.6 3.527V167h7l-1 7h-6v19h-7.48z" class="D"/><path d="M50 238.113a19.66 19.66 0 0 1-5.656 1.55c2.033-1.22 3.595-3.15 4.33-5.448-1.903 1.13-4 1.948-6.253 2.4-1.796-1.914-4.356-3.1-7.188-3.1-5.438.001-9.847 4.4-9.848 9.848 0 .772.087 1.523.255 2.244-8.184-.4-15.44-4.33-20.298-10.3a9.8 9.8 0 0 0-1.333 4.951 9.85 9.85 0 0 0 4.38 8.197 9.81 9.81 0 0 1-4.46-1.232l-.001.124c0 4.77 3.395 8.752 7.9 9.656a9.86 9.86 0 0 1-2.594.345 9.85 9.85 0 0 1-1.853-.177 9.86 9.86 0 0 0 9.199 6.839 19.76 19.76 0 0 1-12.23 4.215c-.795 0-1.58-.047-2.35-.138 4.358 2.794 9.534 4.424 15.096 4.424 18.114 0 28.02-15.006 28.02-28.02a29.9 29.9 0 0 0-.028-1.274 20 20 0 0 0 4.914-5.098l-.002-.016v.01z" fill="#69ace0"/><path d="M26 313l-9.895.144c-3.9.178-7.326 1.133-10.077 3.884s-3.706 6.175-3.884 10.077C2.028 329.665 2 330.482 2 337l.144 9.895c.178 3.9 1.133 7.326 3.884 10.077s6.175 3.706 10.077 3.884c2.56.116 3.377.144 9.895.144s7.335-.028 9.895-.144c3.9-.178 7.326-1.133 10.077-3.884s3.706-6.175 3.884-10.077c.116-2.56.144-3.377.144-9.895l-.144-9.895c-.178-3.9-1.133-7.326-3.884-10.077s-6.175-3.706-10.077-3.884c-2.56-.116-3.377-.144-9.895-.144h0z" fill="#e02d69"/><g class="D"><path d="M26 323.883l6.465.093c1.82.083 3.5.448 4.8 1.748s1.665 3 1.748 4.8l.093 6.465-.093 6.465c-.083 1.82-.448 3.5-1.748 4.8s-3 1.665-4.8 1.748l-6.465.093c-4.272 0-4.778-.016-6.465-.093-1.82-.083-3.5-.448-4.8-1.748s-1.665-3-1.748-4.8L12.883 337l.093-6.465c.083-1.82.448-3.5 1.748-4.8s3-1.665 4.8-1.748l6.465-.093M26 321l-6.597.096c-2.6.12-4.884.756-6.718 2.6s-2.47 4.117-2.6 6.718L10 337l.096 6.597c.12 2.6.756 4.884 2.6 6.718s4.117 2.47 6.718 2.6L26 353l6.597-.096c2.6-.12 4.884-.756 6.718-2.6s2.47-4.117 2.6-6.718L42 337l-.096-6.597c-.12-2.6-.756-4.884-2.6-6.718s-4.117-2.47-6.718-2.6L26 321zm0 7.784A8.22 8.22 0 0 0 17.784 337 8.22 8.22 0 0 0 26 345.216 8.22 8.22 0 0 0 34.216 337 8.22 8.22 0 0 0 26 328.784h0zm0 13.55c-2.946 0-5.333-2.388-5.333-5.333s2.388-5.333 5.333-5.333 5.333 2.388 5.333 5.333-2.387 5.333-5.333 5.333z"/><circle cx="34.541" cy="328.459" r="1.92"/></g></g><g transform="translate(0 471)"><g transform="translate(0 108.557)"><g class="C"><path d="M14.32 18.353L17.294.825h4.51l3.51 9.345L28.804.825h4.51l2.977 17.527h-4.534l-1.512-10.09-4.14 10.09h-1.813l-3.93-10.09-1.512 10.09H14.32"/><path d="M45.452 11.844L43.406 6.01l-2.046 5.835h4.092zm1.21 3.464h-6.5l-1.046 3.045h-4.86L40.918.825h4.976l6.673 17.527h-4.86l-1.046-3.045z"/><path d="M60.472 5.312a5.66 5.66 0 0 0-1.488-.895c-.496-.195-.977-.3-1.442-.3-.6 0-1.07.14-1.442.418a1.3 1.3 0 0 0-.558 1.092c0 .3.093.566.28.767a2.45 2.45 0 0 0 .732.523 6.32 6.32 0 0 0 1.023.384l1.127.348c1.488.496 2.577 1.16 3.267 1.988s1.035 1.9 1.035 3.243c0 .9-.15 1.713-.453 2.44a5.1 5.1 0 0 1-1.325 1.87c-.58.518-1.294.922-2.14 1.2s-1.802.43-2.872.43c-2.217 0-4.27-.658-6.162-1.976l1.953-3.673c.682.604 1.356 1.054 2.023 1.348s1.325.442 1.977.442c.744 0 1.298-.17 1.663-.5s.546-.73.546-1.162c0-.263-.047-.492-.14-.686s-.248-.372-.465-.535-.5-.313-.848-.453l-1.267-.465-1.732-.616a5.46 5.46 0 0 1-1.512-.895 4.15 4.15 0 0 1-1.069-1.406c-.272-.565-.407-1.282-.407-2.15s.143-1.654.43-2.36.7-1.3 1.2-1.813 1.154-.895 1.906-1.174 1.593-.418 2.523-.418c.868 0 1.775.12 2.72.36a12 12 0 0 1 2.72 1.057l-1.813 3.557m8.092 2.753L74.12.825h5.627l-6.952 8.3 7.603 9.228h-5.906l-5.93-7.6v7.6h-4.557V.825h4.557v7.23m12.773 10.298h4.557V.825h-4.557zm6.835 0V.825h4.557l8.417 10.716V.825h4.534v17.527h-4.534L92.728 7.636v10.716H88.17m23.88-3.858h1.046c.8 0 1.496-.124 2.116-.372s1.143-.6 1.57-1.023.752-.95.977-1.546a5.54 5.54 0 0 0 .337-1.964c0-.697-.116-1.348-.35-1.953a4.5 4.5 0 0 0-.988-1.557c-.426-.433-.95-.775-1.57-1.023s-1.318-.372-2.093-.372h-1.046v9.8zM107.493.825h6.742a7.96 7.96 0 0 1 3.36.721c1.046.48 1.96 1.12 2.744 1.918s1.398 1.728 1.848 2.8a8.46 8.46 0 0 1 .674 3.336 8.54 8.54 0 0 1-.662 3.312 8.86 8.86 0 0 1-1.837 2.8c-.782.804-1.697 1.45-2.744 1.93a8.01 8.01 0 0 1-3.383.72h-6.742V.825zm16.415 17.528h4.557V.825h-4.557z"/></g><mask id="T" class="D"><use xlink:href="#A"/></mask><path d="M139.812 11.844l-2.046-5.835-2.046 5.835h4.092zm1.2 3.464h-6.5l-1.046 3.045h-4.86L135.278.825h4.976l6.673 17.527h-4.86l-1.046-3.045zM5.917 8.13L5.5 10.77h2.836l.4-2.64h-2.81zm6.16 0l-.4 2.64h2.172l-.485 2.982h-2.176l-.734 4.644h-3.35l.758-4.644H5.037l-.734 4.644H.954l.733-4.644H0l.485-2.982h1.692l.4-2.64H.856l.484-2.958h1.692L3.717.846h3.35L6.38 5.172h2.836L9.902.846h3.326l-.66 4.326h2.172l-.485 2.958H12.08z" mask="url(#T)" class="C"/></g><path d="M7.568 56.35c-.273.492-.592.98-.673 1.537-.206 1.406 1.14 2.655 1.058 4.074-.012.19-.05.383-.144.55-.123.22-.33.377-.526.538-2.394 1.97-3.433 5.437-2.518 8.4.158.512.37 1.01.473 1.536.126.642.09 1.303.095 1.956.013 1.28.263 2.506.547 3.748.185.812.38 1.65.87 2.325.2.26.42.492.68.682.124.1.256.173.354.292.11.133.168.3.237.46.38.87 1.156 1.526 2.026 1.905 1.336.58 2.917.62 4.344.462 1.45-.16 2.904-.49 4.355-.33 1.064.116 2.138.492 3.178.243 1.66-.397 2.546-2.178 3.11-3.79 1.467-4.203 2.268-8.696 1.804-13.123-.185-1.765-.57-3.5-.962-5.228-.2-.875-.56-1.844-.608-2.74-.014-.266.077-.475.033-.745-.055-.337-.333-.595-.333-.955 0-.247.134-.473.266-.682 1.854-2.928 4.296-5.445 6.197-8.343s3.264-6.402 2.574-9.798c-.072-.356-.15-.938-.378-1.23-.103-.132-.3-.23-.424-.353-.15-.15-.29-.313-.45-.45a2.34 2.34 0 0 0-1.204-.573l-.514-.088c-3.7-.59-7.633-.63-11.278.31a44.68 44.68 0 0 0-4.325 1.352c-.835.308-1.66.64-2.485.974l-.727.293c-1.525.66-2.867 1.574-4.01 2.777-1.078 1.132-1.34 3.018-1.316 4.514a11.49 11.49 0 0 0 .029.635c.063.846.2 1.7.504 2.486.115.31.252.614.38.92.2.45.362.907.516 1.37.135.403.32.832.294 1.263-.08.946-.594 2.014-1.05 2.83" class="C"/><path d="M24.303 44.29c1.2.337 2.392.77 3.425 1.47 1.326.896 2.332 2.183 3.293 3.463 1.223 1.63 2.42 3.296 3.265 5.15 1.6 3.512 1.842 7.474 1.906 11.332.05 2.95.002 5.942-.79 8.785-.312 1.124-.75 2.234-1.486 3.14-.73.9-1.722 1.554-2.753 2.085-4.167 2.148-9.02 2.432-13.498 3.82-1.647.51-3.295 1.18-5.02 1.135s-3.58-1.06-3.916-2.75c-.204-1.026.18-2.088.068-3.13-.18-1.692-1.64-3.154-1.43-4.842.113-.904.7-1.837.302-2.657-.313-.644-1.122-.914-1.48-1.535-.43-.746-.062-1.68.308-2.457l1.64-3.445c.22-.464.445-.943.486-1.455.126-1.58-1.498-2.988-1.144-4.533.128-.56.502-1.026.8-1.517 1.677-2.772.967-6.483 2.546-9.312.266-.477.673-.826 1.098-1.16.972-.762 2.114-1.317 3.288-1.694 1.366-.44 2.807-.615 4.24-.604 1.46.012 2.914.217 4.328.572a19.93 19.93 0 0 1 .523.138" class="F"/><path d="M13.32 60.956c.564-.165 1.343.922 1.658 1.298.158.187.308.382.497.538.494.407 1.177.49 1.818.48.774-.01 1.547-.13 2.288-.355.4-.122.84-.322.97-.72.177-.545-.322-1.056-.77-1.413l-1.07-.855c-.356-.284-.724-.575-1.16-.705-.55-.164-1.154-.055-1.707-.212-.274-.078-.525-.22-.763-.375-.436-.286-.836-.63-1.187-1.015-.73-.803-1.58-.796-2.336.04-.398.44-.56 1.003-.76 1.546-.436 1.184-.64 2.436-.838 3.677l-.13.81c-.1.627-.202 1.27-.08 1.894s.518 1.233 1.12 1.43c.408.133.855.064 1.265-.06.332-.102.7-.278.8-.6.06-.194.015-.402-.028-.6l-.187-.838c-.07-.225.044-.478.09-.705.178-.884-.295-2.258.24-3.03.083-.12.176-.188.276-.217" class="I"/><path d="M11.817 60.335l-.033.265c-.015.12-.024.258.062.342.112.11.3.05.432-.033.327-.206.75-.808.35-1.157-.432-.376-.764.223-.8.583" class="F"/><path d="M23.455 55.227c-.21 1.253-.302 2.503-.05 3.8.143.734.46 1.424.625 2.155.41 1.82.752 3.714.66 5.593-.036.724-.145 1.5-.603 2.052-.226.277-.522.487-.827.674a8.88 8.88 0 0 1-1.187.614c-.187.08-.382.155-.53.294-.44.4-.284 1.125-.114 1.7a28.87 28.87 0 0 1 .759 3.243c.082.467.15.95.047 1.413-.088.386-.292.735-.516 1.062-.354.515-.783 1.156-1.382 1.4-.54.22-1.172.28-1.73.486-1.595.584-3.223.98-4.924 1.082-.578.034-1.167.04-1.717.22-.7.23-1.414.86-1.127 1.664.258.724 1.114.928 1.8.995 4.343.424 8.78-.65 12.586-2.785s6.99-5.3 9.38-8.95c.534-.817 1.034-1.666 1.342-2.593.4-1.178.47-2.48 1.126-3.532.604-.967 1.622-1.6 2.325-2.498 1.186-1.512 1.316-3.77.313-5.408-1.526-2.492-4.933-3.086-6.967-5.184-.644-.664-1.126-1.457-1.622-2.23-.302-.47-1.093-1.053-.684-1.663.212-.315.585-.474.925-.642 1.002-.493 1.895-1.205 2.597-2.072.298-.367.572-.865.364-1.29-.145-.295-.5-.446-.818-.458s-.648.1-.963.18a17.45 17.45 0 0 1-6.701.589c-1.118-.12-2.22-.5-3.35-.517-1.32-.03-2.66-.275-3.992-.37-1.316-.093-2.716-.214-4.028-.04-.672.088-1.34.3-1.882.707-.336.254-.615.576-.9.895-.336.4-.638.75-.896 1.19a7.82 7.82 0 0 0-.617 1.321c-.36 1.004-.53 2.068-.636 3.13.053-.562.48-1.024.955-1.328s1.023-.5 1.586-.56c.593-.066 1.294-.116 1.653-.674.342-.53.367-1.145.8-1.656.39-.47.963-.772 1.532-.966 1.164-.396 2.42-.435 3.647-.363.777.046 1.593.15 2.22.613.366.27.64.646.882 1.033 1.082 1.737 1.478 3.54 1.06 5.545-.15.714-.303 1.417-.42 2.12" class="I"/><path d="M13.466 74.733c-1.102.216-1.263-.136-2-.326-.327-.084-.747-.295-1.052-.42-.392-.162-.38-.294-.968-.463-.1-.028-.512.078-.58.147-.177.174-.36.118-.53.015-.025-.077-.103-.14-.2-.1a.67.67 0 0 0-.33.32c-.137.116-.153.3-.1.488.03.292.254.5.553.556.087.016.193-.027.2-.124.014-.08.055-.1.107-.1a.65.65 0 0 0 .209.198c.092.052.198.07.304.07a1.25 1.25 0 0 0 .126.026l.294.074a.85.85 0 0 0 .235.064 1.84 1.84 0 0 0 .4.05c.022.004.044.003.066-.002l.04-.001c.255-.017.482-.195.744-.14a.22.22 0 0 0 .112-.006c.447-.14 1.02.156 1.46.228.2.035.43.106.658.15.346.064.443-.752.226-.7m-1.762 2.97c-.227-.034-.456-.035-.685-.032a.15.15 0 0 0-.106-.217c-.453-.124-.92-.173-1.375-.286.545-.165 1.93-.078 2.1-.037.038.01.012-.227-.023-.248-.752-.43-1.5.183-2.224-.042-.04-.012-.097-.01-.128.023l-.03.032c-.105-.052-.2-.01-.24.1l-.05.17c-.024.08.023.146.088.18l-.176.025c-.116.022-.164.186-.06.254.133.084.248.298.376.493a.31.31 0 0 0 .003.08c.001.014.006.027.01.04a.83.83 0 0 0 .213.492c.052.054.13.077.194.05.046.01.103-.004.135-.04.063-.07.132-.13.18-.212.1-.195.192-.36.386-.45l.12-.058a8.08 8.08 0 0 0 1.265-.016c.16-.013.194-.266.024-.3m.195-7.503c-.173-.001-.332.035-.5.075-.32.077-.5.004-.697-.158.014-.006.028-.01.04-.018.092-.05.153-.172.074-.264-.446-.523-1-.637-1.653-.488a3.55 3.55 0 0 0-.38.115l-.875.14c-.18.03-.494.04-.687.138-.062-.02-.122-.05-.18-.085-.114-.187-.533-.564-.592-.533-.157-.098-.002.226.064.375.057.13.267.414.35.448h0c.194.152.43.217.655.3.3.12.558.27.836.413.062.03.12.02.164-.017a.41.41 0 0 0 .06.007c.147.01.255-.147.16-.275-.015-.223.055-.273.208-.15.08.05.156.108.228.17l.155.14a.57.57 0 0 0 .106.11c.058.05.085.12.144.172a.36.36 0 0 0 .224.089.43.43 0 0 0 .127.022.35.35 0 0 0 .065-.002c.036.035.086.055.136.042a1.71 1.71 0 0 0 .46-.195.76.76 0 0 0-.012.152c.002.113.084.183.196.173.482-.046.9-.3 1.254-.624.1-.108.005-.282-.132-.283" class="C"/><path d="M9.26 57.758c-.254-.396-.98-.234-1.34-.073-.218.097-.434.24-.525.46-.01.027-.02.057-.013.085.008.036.038.06.067.083.383.287.836.404 1.2.755.095.095.2.207.335.204.098-.001.187-.068.24-.15.227-.345.264-.966.063-1.335l-.018-.03m13.36 3.505c.008-.01.015-.024.02-.038.018-.06-.014-.12-.045-.175l-.447-.75c-.533-.864-1.54-1.515-2.434-1.98l-.83-.433-.7-.347c-1.107-.494-2.3-.687-3.485-.8-.7-.074-1.452-.07-2.112.205-.78.325-.724 1.23-.203 1.785a.48.48 0 0 0 .172.128c.1.038.213.016.32-.005 1.44-.286 3.038-.863 4.5-.47.697.187 1.27.566 1.847.972.4.3.863.56 1.23.906.326.306.637.634 1.033.855a1.84 1.84 0 0 0 .917.233c.076-.001.166-.018.2-.074m24.365-.386c.316-1.753.603-3.6.694-5.387.1-1.74-.493-3.3-1.198-4.85-.7-1.552-1.723-2.9-2.444-4.442-.645-1.37-.975-2.528-2.667-2.676-1.595-1.186-2.797-2.285-4.575-3.154-.984-.48-2.16-.885-2.967-1.62-.875-.796-2.002-1.274-3.156-1.533s-2.344-.312-3.526-.346c-1.945-.057-3.915-.063-5.83.33-1.345.276-2.647.605-3.942 1.072L13.35 39.72l-1.947.793c-1.316.667-2.778 1.8-3.376 3.2-.164.382-.26.788-.35 1.193-.146.66-.276 1.325-.308 2 0 2.133.707 4.062 1.695 5.932.03.057.077.123.14.112s.087-.1.096-.156c.133-.986.412-1.948.553-2.924.135-.93.462-1.947.958-2.744.418-.67 1.016-1.24 1.55-1.812.52-.557 1.5-.78 2.213-.93.968-.202 1.987-.295 2.94-.024.82.234 1.535.72 2.27 1.137.343.195.728.32 1.062.5.43.245.834.57 1.244.85l.547.4.385.326c.43.315 1.082.457 1.6.322s.742-.73.217-1.086c.22.093.373.303.585.416.35.188.602.03.9-.12.225-.1.514-.218.468-.527-.027-.18-.15-.327-.278-.458a5.03 5.03 0 0 0-1.023-.811c.468.102.863.404 1.257.676s.834.53 1.313.528c.324-.001.655-.112.974-.162.205-.032.568-.055.717-.23.062-.074.068-.183.04-.275s-.088-.172-.146-.25a1.59 1.59 0 0 0 .42.28c.12.056.252.097.386.093.295-.007.63-.15.92-.2.418-.083.834-.234 1.243-.353.196-.057.6-.32.8-.195.074.05.112.15.085.233-.032.1-.134.154-.227.2-.764.375-1.648.587-2.454.87l-2.58 1.023c-1.03.5-2.026 1.105-2.768 1.973s-1.208 2.017-1.07 3.15c.162 1.326.977 2.606 1.53 3.793.622 1.333.714 2.854.808 4.3l.045 2.736c-.032.418-.106.834-.162 1.246s-.3.85-.512 1.207a2.76 2.76 0 0 0 1.555-.69 3.39 3.39 0 0 1-.37.552 5.56 5.56 0 0 0 1.462-.648.42.42 0 0 1-.158.193c.46-.1.938-.188 1.302-.48.207-.165.473-.63.755-.272a.73.73 0 0 1 .123.353c.008.052.01.105.016.157 5.024-1.24 10.354-1.875 15.764-2.58a12.47 12.47 0 0 0 .422-1.649" fill="#35261d"/><path d="M25.933 90.773l-.34.705c-.144.273-.302.542-.478.796-.08.118-.255.364-.45.5-.104-.001-.21-.047-.316-.155a1.68 1.68 0 0 1-.215-.273c.083.022.176-.005.248-.055a2.88 2.88 0 0 0 .291-.233c.077-.024.15-.066.205-.124.125-.13.23-.255.28-.422a4.82 4.82 0 0 0 .368-.603c.29-.472.56-.964.804-1.47v.135l-.398 1.2zm19.943-7.64c-1.46-1.036-2.3-2.352-3.147-3.896-1.532-2.795-.896-6.137.263-9.014 1.05-2.603 2.693-5.015 3.564-7.694-5.41.704-10.74 1.338-15.764 2.58.102.967-.147 1.94-.4 2.885-.205.768-.42 1.557-.897 2.193-.42.56-1.03.977-1.36 1.596-.48.9-.265 1.992-.332 3.01-.064.98-.418 1.933-.99 2.73-.652.9-1.485 1.3-2.404 1.874-2.297 1.437-4.3 2.645-6.914 3.457-1.34.42-2.654.733-4.054.878.192.193.486.217.79.216-1.625.408-3.37.47-4.69-.623.808 1.607 2.788 1.342 4.328 1.3 1.837-.05 3.86-.884 5.645-.21 1.517.57 2.858 1.713 3.046 3.37.184 1.623.208 3.398 1.07 4.858 1.213 2.06 2.848-1.376 3.234-2.417.03.515 1.075 1.223 1.414.668-.13.73-.5 1.88.14 2.448.548.48 1.57.424 2.2.19.08.515.593.62 1.036.564-1.726 2.128 2.558.505 3.322.17 1.668-.73 3.47-1.67 4.905-2.795-.088.016-.184.003-.31.05.665-.452 1.4-.642 2.18-.766-.93.774-2.01 1.415-3.058 2.02-.863.497-2.5.97-3.092 1.697.8.226 2.547-1.067 3.255-1.473 1.12-.64 2.114-1.426 3.176-2.144.515-.35 1.157-.444 1.642-.836.2-.164.425-.332.47-.603.033-.2-.284-.51-.212-.667.135-.294 2.617.036 1.92-.87.794-.23 2.178-1.154 1.274-2.045.31-.236.5-.456.57-.66.32-.825-.964-1.434-1.8-2.034h0z" class="C"/><path d="M23.968 46.065c-1.097-1.014-2.18-2.05-3.468-2.768-1.266-.737-2.738-1.154-4.23-1 .726-.195 1.504-.188 2.248-.045s1.46.434 2.123.8c1.312.77 2.403 1.842 3.328 3.013m.286-.56L22.03 43.23c-.76-.73-1.583-1.382-2.508-1.918 1.02.334 1.926.978 2.703 1.713.775.745 1.445 1.584 2.03 2.48m-1.378-5.312c.358.06.645.333.866.6a10.75 10.75 0 0 1 .62.846 6.26 6.26 0 0 1 .508.924 3.67 3.67 0 0 1 .295 1.013c-.302-.634-.66-1.206-1.04-1.782l-.558-.873c-.183-.285-.38-.56-.692-.73m1.747.916c.346.293.6.682.768 1.094.167.415.27.864.233 1.316l-.494-1.207-.506-1.203m1.733.112c.173.204.262.464.296.724s.004.535-.116.774l-.088-.75-.092-.75m.642.57c.106.12.136.276.13.423-.014.147-.065.296-.188.4-.03-.158-.023-.284-.017-.415.013-.13.024-.256.075-.408" class="I"/><g transform="translate(4.845 61.097)"><mask id="U" class="D"><use xlink:href="#B"/></mask><path fill="#1b152d" mask="url(#U)" d="M-7.138 26.25H50.66v-57.782H-7.138z"/><mask id="V" class="D"><use xlink:href="#C"/></mask><g class="L E"><path d="M16.266 4.66L.196 20.727v.442l16.51-16.51h-.442m-.958 0l-4.92 4.92v.202h-.202l-4.9 4.898v.202h-.202L.196 19.77v.44L15.75 4.66h-.442M4.225 18.918h.14l4.96-4.96v-.14h.14l4.974-4.972v-.128h.128l4.058-4.057h-.442L.196 22.645v.442l4.03-4.028v-.14m.327-4.036h-.328v-.113l-4.15 4.15h.12v.32l4.357-4.356M17.238 4.66L.196 21.7v.442L17.68 4.66h-.442M5.176 13.818h.1v.333l4.37-4.368h-.33V9.67l-4.15 4.148m-.95.422v-.422h.42l4.68-4.68v-.42h.42l4.693-4.7v-.442L-.896 18.918h.44l4.68-4.68M14.44 3.068v-.442L-1.855 18.918h.44L14.44 3.068"/><path d="M10.278 8.718h.1v.332l4.4-4.4h-.336v-.105L10.29 8.717m4.15-6.62v-.44L-2.827 18.918h.44L14.44 2.096M27.297 4.66h-.44L22.8 8.718h.44l4.057-4.057m-.97-.001h-.442l-4.057 4.057h.44l4.058-4.057M29.08.518V.96l4.052-4.05v-.442L29.08.518m-.824 4.142h-.442l-4.057 4.057h.44l4.058-4.057M33.133.757v-.44l-4.052 4.05v.294h-.295L24.73 8.718h.44l7.963-7.96m-4.053 1.68v.44l4.052-4.05v-.442l-4.052 4.05m0-.97v.442l4.052-4.05v-.442l-4.052 4.05m4.053-1.68v-.442l-4.052 4.05v.442l4.052-4.05M9.326 2.412v-.44l-11.85 11.846h.442L9.326 2.412m-5.1-1.118L-3.2 8.718h.44l6.985-6.982v-.44M14.44 1.15V.7L-3.774 18.9h.442L14.44 1.15M4.225-1.198v-.442L.196 2.4v.442l4.03-4.028m-.001-1.93v-.442L.196.46V.9l4.03-4.028m-.001-1.387L.196-.487v.44l4.03-4.028v-.44m-.001 2.36v-.44L.196 1.43v.44l4.03-4.028m5.1 5.518v-.44l-10.9 10.898h.442L9.326 3.36m-5.1 6.073v-.44L-.602 13.82h.44l4.386-4.385m28.91-7.687v-.442l-7.415 7.412h.442l6.973-6.97M9.326 1l-12.82 12.818h.44L9.326 1.44V1m-5.1 2.665v-.44L-1.27 8.718h.44l5.055-5.053"/><path d="M4.225 2.693V2.25l-6.467 6.466h.44l6.026-6.024M21.32 8.718l4.06-4.058h-.442L20.88 8.718h.44m-1.505 1.065l-4.037 4.035h.442l4.036-4.035h-.44m-4.66 5.1h-.44L10.4 19.206v.442l4.767-4.765m.09-1.065l4.037-4.035h-.442l-4.036 4.035h.44m-5.1 5.1l4.294-4.293v-.442l-4.735 4.735h.442"/><use xlink:href="#E"/><use xlink:href="#F"/><path d="M24.105 9.783h-.44l-4.037 4.035h.44l4.037-4.035"/><use xlink:href="#F" x="-0.959"/><path d="M24.407 4.66h-.44L19.91 8.717h.442l4.057-4.057m-2.88 0h-.442L17.03 8.718h.442L21.53 4.66m-6.537 5.122l-4.605 4.604v.44l5.047-5.045h-.442m5.123-5.122l-4.058 4.057h.44l4.058-4.057h-.442"/><path d="M23.45 4.66h-.442L18.95 8.718h.44l4.06-4.058m-.973 0h-.44L17.98 8.717h.442l4.057-4.057"/><use xlink:href="#E" x="4.864"/><path d="M38.234 3.396v-.44L27.37 13.818h.44L38.234 3.396m0-.97v-.442L26.397 13.818h.44L38.234 2.425m0-.96v-.44L25.438 13.818h.442L38.234 1.466M14.968 18.918l4.036-4.036h-.44l-4.037 4.036h.442m18.798-9.135h-.44l-4.27 4.27v.44l4.7-4.7m-5.45 4.025h.442l4.376-4.375V9l-4.818 4.816M9.9 14.883l-4.604 4.602v.44l5.045-5.043h-.44m14.763-5.1l-4.037 4.035h.442l4.036-4.035h-.44m-4.662 5.1h-.44l-4.036 4.036h.44l4.036-4.036m8.95-5.1h-.44l-4.037 4.035h.442l4.036-4.035"/><use xlink:href="#F" x="4.863"/><use xlink:href="#E" x="5.822"/><path d="M33.133 3.677v-.44l-5.483 5.48h.442l5.042-5.04m-4.078 5.047l4.077-4.076v-.442l-4.512 4.5h.435v.007m4.077-6.004v-.44L26.69 8.72h.44l6-6m.936 1.94h-.442l-4.57 4.57v.442l5-5M4.225 20.547l-4.03 4.028v.44l4.03-4.028v-.442m10.25-10.762h-.035v-.407l-4.444 4.442h.4v.052l4.1-4.087m1.054-1.065l4.058-4.057h-.442L15.1 8.718h.44M4.225 19.6l-4.03 4.028v.44l4.03-4.027v-.442"/><path d="M4.896 18.918h.4v.05l4.086-4.086h-.047v-.394l-4.43 4.43M29.08-.012l4.052-4.05v-.442L29.08-.453v.442M14.44 20.965l-4.052 4.05v.442l4.052-4.05v-.442m0-21.745v-.44l-4.052 4.05v.442L14.44-.78M.196 3.802l4.03-4.028v-.442L.196 3.36v.44M9.326.042L5.287 4.08v.442l4.04-4.04v-.44m5.114-3.715v-.442l-4.052 4.05V.38l4.052-4.05m0 .97v-.442L10.388.9v.442L14.44-2.7m0 .948v-.44l-4.052 4.05V2.3l4.052-4.05M.117 8.718l4.107-4.106V4.17l-4.55 4.547h.442m9.2-12.082v-.442L5.287.23v.442l4.04-4.038m-.001.96v-.44L5.287 1.2v.44l4.04-4.038m-.001.963v-.442L5.287 2.16v.442l4.04-4.038M9.326-.5v-.44l-4.04 4.038v.442L9.326-.5M-3.732 8.718L4.225.764V.322L.196 4.35v.3h-.3l-4.058 4.057h.442M4.705 4.66L.182 9.183v.44L5.146 4.66h-.44m21.597 10.223l-4.036 4.036h.44l4.037-4.036h-.442M9.515 4.66L5.285 8.9v.44l4.67-4.67h-.44M4.833 9.783h-.44l-4.2 4.208v.442l4.65-4.65M14.44-.263l-4.052 4.05v.44L14.44.178v-.442"/></g><mask id="W" class="D"><use xlink:href="#D"/></mask><path mask="url(#W)" d="M4.94 8.718l4.386-4.385v-.44L4.5 8.718h.44" class="L"/><mask id="X" class="D"><use xlink:href="#E" href="#C"/></mask><g class="L J"><path d="M17.354 9.783h-.442L5.287 21.405v.442L17.354 9.783m-2.914 10.65v-.44l-4.052 4.05v.442l4.052-4.052m-5.114.266v-.44l-4.04 4.038v.442l4.04-4.038m6.334-5.82l-5.272 5.27v.442l5.713-5.7h-.442m-1.22 4.56v-.442l-4.052 4.05v.442l4.052-4.05m2.634-4.562h-.44L10.4 21.125v.442l6.685-6.683m.957-.001H17.6l-7.202 7.2v.442l7.644-7.64M9.326 19.74v-.442l-4.04 4.038v.442l4.04-4.038"/><path d="M15.964 9.783L5.287 20.457v.44L16.405 9.783h-.44m2.36 0h-.442L5.287 22.377v.442l13.04-13.035m-9 11.43l-4.04 4.038v.442l4.04-4.038v-.44m11.198-6.334l-4.036 4.036h.44l4.037-4.036h-.442m3.32 0H23.4l-4.036 4.036h.442l4.036-4.036"/><use xlink:href="#G"/><use xlink:href="#G" x="-0.972"/><use xlink:href="#G" x="1.918"/><use xlink:href="#G" x="2.877"/><path d="M26.118 18.918h.44L43.325 2.156v-.442L26.118 18.918m7.015 1.688l-4.052 4.05v.442l4.052-4.05v-.44m.002-6.786l-5.098 5.097h.44l4.657-4.656v-.44"/><path d="M33.138 13.818h.44l4.657-4.655V8.72l-5.098 5.097m-.004 5.843L29.08 23.7v.44l4.052-4.05v-.44m-4.908-4.767l-4.036 4.036h.44l4.036-4.036h-.44m.856 7.855v.442l4.052-4.05v-.2h.2l4.893-4.892v-.2h.2l4.894-4.893v-.207h.208l4.057-4.057h-.44L29.08 22.738"/></g><mask id="Y" class="D"><use xlink:href="#F" href="#D"/></mask><path mask="url(#Y)" d="M33.472 14.883h-.338v-.103l-4.14 4.14h.086v.354l4.39-4.4" class="L"/><mask id="Z" class="D"><use xlink:href="#G" href="#C"/></mask><g class="L B"><path d="M25.146 18.918h.44l17.74-17.734v-.44L25.145 18.92M39.297 9.6v.192h-.192l-4.9 4.908v.192h-.192l-4.922 4.92v.44L44.67 4.66h-.44L39.3 9.6M29.08 20.808v.442l16.593-16.6h-.44L29.08 20.808m0 .972v.442L46.646 4.66h-.442L29.08 21.78"/><path d="M27.064 18.918h.442l15.82-15.816v-.44L27.066 18.92m.186-4.036l-4.037 4.036h.442l4.036-4.036h-.44M.196 8.707h4.03V4.68H.196zm0 5.096h4.03V9.776H.196z"/><path d="M.18 18.918h4.043v-4.042H.18zm5.107 0H9.33v-4.042H5.287zm5.1 0h4.043v-4.042h-4.043zM5.292 8.707h4.03V4.68h-4.03zm0 5.096h4.03V9.776h-4.03zm5.096-5.096h4.03V4.68h-4.03zm0 5.096h4.03V9.776h-4.03zm18.707-5.096h4.03V4.68h-4.03zm0 5.096h4.03V9.776h-4.03zm-.015 5.115h4.043v-4.042H29.08z"/></g><g class="M B"><path d="M7.008 12.095H7.6v-.583h-.583z"/><use xlink:href="#H"/><use xlink:href="#I"/><use xlink:href="#J"/><use xlink:href="#H" x="-9.631"/><path d="M23.895 11.513l-.583.583h.44l.583-.583h-.442"/><use xlink:href="#J" x="-2.893"/><use xlink:href="#J" x="-6.741"/><use xlink:href="#H" x="-1.931"/><use xlink:href="#I" x="-3.851"/><use xlink:href="#J" x="-3.851"/><path d="M25.825 11.513l-.583.583h.44l.583-.583h-.442"/><use xlink:href="#H" x="-5.782"/><use xlink:href="#I" x="-13.522"/><use xlink:href="#K"/><path d="M8.312 12.095l.584-.583h-.442l-.583.583h.44m-.71 1.23l-.594.593v.442l.594-.594v-.44"/><use xlink:href="#K" y="1.929"/><use xlink:href="#L"/><use xlink:href="#L" y="-0.949"/><use xlink:href="#L" y="1.928"/><use xlink:href="#K" y="7.697"/><use xlink:href="#L" y="-3.85"/><path d="M7.6 16.213l-.594.593v.442l.594-.594v-.44"/><use xlink:href="#K" y="4.806"/><use xlink:href="#I" x="-12.563"/><use xlink:href="#M"/><use xlink:href="#N"/><path d="M7.008-.1L7.6-.682v-.44l-.594.593v.442M7.6 4.137v-.44l-.594.593v.442l.594-.594"/><use xlink:href="#O"/><use xlink:href="#N" y="4.821"/><path d="M7.008.442v.44L7.6.3v-.44l-.594.593M7.6 2.207v-.44l-.594.593v.44l.594-.593"/><use xlink:href="#O" y="-3.85"/><use xlink:href="#N" y="3.85"/><use xlink:href="#O" y="3.848"/><use xlink:href="#N" y="6.751"/><use xlink:href="#O" y="2.889"/><path d="M7.6 8.934v-.442l-.594.594v.44l.594-.593"/><use xlink:href="#P"/><use xlink:href="#M" x="-3.849"/><use xlink:href="#P" x="1.919"/><use xlink:href="#M" x="-6.751"/><use xlink:href="#M" x="-8.672"/><path d="M16.596 11.513h-.442l-.583.583h.44l.583-.583m-1.92 0h-.442l-.583.583h.442l.583-.583"/><use xlink:href="#M" x="-22.151"/><use xlink:href="#P" x="-15.41"/><use xlink:href="#M" x="-19.272"/><path d="M5.022 11.513H4.58l-.583.583h.442l.583-.583"/><use xlink:href="#M" x="-18.3"/><path d="M1.173 11.513H.73l-.583.583H.6l.583-.583m6.74 0H7.6v-.12l-.7.702h.108v.333l.916-.916m.906.583h.44l.583-.583h-.44l-.583.583m1.996-.582h-.442l-.583.583h.44l.584-.583"/><use xlink:href="#M" x="-10.603"/><use xlink:href="#M" x="-16.381"/><path d="M12.745 11.513h-.442l-.583.583h.44l.583-.583"/></g><mask id="a" class="D"><use xlink:href="#H" href="#D"/></mask><use xlink:href="#P" x="-10.602" mask="url(#a)" class="M"/><mask id="b" class="D"><use xlink:href="#I" href="#C"/></mask><g class="M H"><use xlink:href="#Q"/><use xlink:href="#R"/><use xlink:href="#R" y="2.893"/><path d="M22.034 20.54V20.1l-.56.56v.442l.56-.56"/><use xlink:href="#R" y="-0.958"/><use xlink:href="#R" y="-15.436"/><use xlink:href="#R" y="-16.395"/><use xlink:href="#S"/><path d="M22.034 1.254V.812l-.56.56v.442l.56-.56"/><use xlink:href="#S" y="-0.971"/></g><mask id="c" class="D"><use xlink:href="#J" href="#D"/></mask><use xlink:href="#S" y="-1.92" mask="url(#c)" class="M"/><mask id="d" class="D"><use xlink:href="#K" href="#C"/></mask><g class="M G"><use xlink:href="#Q" y="-19.285"/><use xlink:href="#R" y="-10.615"/><use xlink:href="#Q" y="-12.558"/><path d="M22.034 12.843V12.4l-.56.56v.44l.56-.56"/><use xlink:href="#R" y="-6.767"/><path d="M22.034 14.773v-.44l-.56.56v.44l.56-.56m0 .97v-.44l-.56.56v.44l.56-.56"/><use xlink:href="#S" y="7.739"/><use xlink:href="#Q" y="-2.902"/><use xlink:href="#R" y="-7.738"/><path d="M22.034 8.952V8.5l-.56.56v.44l.56-.56"/><use xlink:href="#Q" y="-9.668"/></g></g><g fill="#141e30"><path d="M8.645 81.798c-.284-.147-.55-.323-.793-.53.24.208.5.384.793.53m-3.593-12.85a7.17 7.17 0 0 1 .152-1.289 7.17 7.17 0 0 0-.152 1.289m5.978-4.684l-2.414-.735c.316.08.63.196.945.297l1.468.44m2.736.648c2.456.37 4.94-.152 7.34-.848l-1.806.415c-1.037.222-2.08.43-3.14.5-1.235.07-2.47-.07-3.678-.322l1.283.265m-7.356 13.78l.056.196-.056-.196m.852 1.916a4.71 4.71 0 0 1-.475-.845 4.71 4.71 0 0 0 .475.845"/><path d="M7.26 80.62a3.75 3.75 0 0 0 .249.311c.107.12.222.232.343.336a3.88 3.88 0 0 1-.343-.336 3.75 3.75 0 0 1-.249-.311m7.806 1.05c-1.308.337-2.728.734-4.086.703 1.287.042 2.557-.27 3.798-.6l1.02-.293-.732.2m-5.05.585a6.04 6.04 0 0 0 .964.108c-.322-.01-.646-.046-.964-.108"/></g><path d="M23.786 65.047c.242-.054.496-.07.74-.124l.725-.18 1.346-.34 2.8-.668c.148-.05.132-.29-.038-.283-.967.03-1.938.31-2.87.557l-1.434.422-.704.256c-.205.087-.39.204-.593.293-.04.017-.01.076.03.067" class="C"/><path d="M10.078 83.3c.96.116 1.923.083 2.88-.044a10.43 10.43 0 0 0 1.356-.27c.456-.122.932-.25 1.342-.49.22-.13.07-.446-.168-.4-.463.093-.908.275-1.36.403l-1.28.323c-.91.204-1.843.31-2.772.382-.063.005-.06.09 0 .096" class="F"/><path d="M28.82 61.988c1.047-.236 2.034-.76 3.08-1.008l3.014-.612 2.98-.82 1.423-.422c.624-.183 1.3-.46 1.948-.352.24.04.347-.323.102-.37-.96-.186-1.967.236-2.887.48l-3.2.917-3.287.884-3.2 1.154c-.037.012-.092.125-.055.117l.092.033m-1.318 14.26l.474-.207 1.575-.764c.705-.362 1.382-.772 2.046-1.204 1.293-.84 2.566-1.792 3.662-2.88.15-.148-.068-.348-.225-.225l-3.782 2.783-1.916 1.156c-1.045.606-2.16 1.092-3.146 1.798-.047.034-.1.096-.064.142l1.376-.6M11.17 63.46c.553.333 1.15.603 1.778.756.636.155 1.3.165 1.96.1.28-.028.282-.473 0-.442-.63.068-1.25.033-1.876-.036s-1.25-.205-1.84-.432c-.03-.012-.05.036-.022.052" class="I"/><g class="C"><path d="M18.408 68.546c.046 0 .046-.072 0-.072s-.046.072 0 .072M8.006 66.67c.046 0 .046-.072 0-.072s-.046.072 0 .072m6.204-6.853c.883-.703 2.166-.577 3.24-.23 1.615.522 3.1 1.467 4.24 2.715-.807.114-1.416-.925-2.228-.86-.052.004-.107.014-.147.048-.157.13.065.36.255.435l1.548.622c.05.184-.243.244-.427.194a4.82 4.82 0 0 1-1.806-.94l-.716-.63c-.994-.796-2.32-1.08-3.593-1.052-.35.008-.717.034-1.037-.1s-.565-.527-.42-.847c.28.526 1.044.468 1.62.32s1.318-.26 1.657.232"/><path d="M15.663 61.345a.52.52 0 0 0 .053.063c.305.317.94.26 1.334.238l.367-.02c.065-.004.14-.015.17-.072a2.03 2.03 0 0 1-.736-.167c-.063-.027-.13-.063-.156-.127-.06-.15.02-.432.01-.598-.006-.088-.012-.178-.045-.26-.05-.12-.154-.213-.273-.268-.243-.112-.463-.095-.63.127-.214.285-.322.772-.095 1.084m-1.876-.595c-.05.136-.075.283-.05.426-.007.015-.03.017-.043.007s-.02-.027-.024-.043a1.87 1.87 0 0 1-.087-.565c0-.1.008-.187.054-.267.064-.1.324-.195.364-.01.024.114-.17.338-.213.45"/><path d="M7.4 63.42c1.35.263 2.588.963 3.906 1.342 1.357.4 2.76.53 4.17.494 2.842-.07 5.6-.827 8.316-1.64l4.848-1.52c.248-.085.15-.465-.1-.397-5.403 1.426-11.004 3.996-16.7 2.622-.756-.183-1.494-.43-2.25-.6a14.9 14.9 0 0 0-2.183-.347c-.032-.003-.04.052-.008.058m37.193-5.87c-.016-.018.024-.04.038-.022s-.003.048-.024.058c-.8.37-1.635.7-2.5.8s-1.795.032-2.577-.376c-.13-.068-.246.157-.17.283s.23.175.374.207c1.367.307 2.802-.058 4.08-.63M84.25 76.374c.158-.54.367-1.063.645-1.55.263-.464.784-.88.94-1.374.188-.593-.235-1.13-.442-1.653-.212-.54-.23-1.154-.35-1.723l-.873-5.102c-.053-.4-.145-1.073-.367-1.802-.363-1.198-.12-2.917-.1-4.163l.147-4.387c.13-2.547.588-5.108-.36-7.566-.148-.385-.323-.765-.403-1.17s-.06-.83-.07-1.248c-.054-2.65-1.267-5.202-3.067-7.147s-4.156-3.318-6.64-4.244c-1.796-.67-3.753-1.167-5.114-2.516-1.175-1.166-1.746-2.826-2.88-4.03-1.652-1.753-4.278-2.28-6.672-2.007-.872.1-1.592.278-2.462.058l-1.894-.48-1.117-.235c-1.34-.173-2.68.223-4 .56a47.32 47.32 0 0 1-5.956 1.13l-5.737.55c-1.316.233-2.606.383-3.585 1.406-.9.93-1.3 2.158-1.612 3.237-1.62 5.58-2.22 11.527-1.77 17.335l-.16.727-.054.233-.178.804c-.075.14-.137.3-.174.518s-.098.555-.03.93c-.238.634.03 1.32.125 1.57l.307.788.083-.026c.014.047.03.093.037.138l-2.83-1.2 1.738 2.534c.113.166.25.292.393.387l-.5.26 1.044.33-.006.032a2.54 2.54 0 0 0 .283.056l.594.2.001.02.08.005.074.024c.023.007.047.01.07.016l.22.656-.136.7-.045.047.017.1c-.32 1.662-.602 3.343-.83 5.013l.082.012-.037.242c-.16.322-.252.712-.286 1.184-.186 2.537.493 4.973 1.105 6.8.233.7.488 1.402.734 2.082.612 1.7 1.2 3.286 1.514 4.964a32.48 32.48 0 0 1 .26 1.633c.162 1.137.33 2.313.73 3.455.757 2.157 2.277 3.66 4.067 4.023a1.9 1.9 0 0 0 .08.014c-.07.012-.114.01-.117.01a3.13 3.13 0 0 1 .28.058 2.75 2.75 0 0 0 .391.073c.214.02.432.028.65.03l.005.084.655-.1c1.412-.106 2.8-.57 4.092-1.144a11.46 11.46 0 0 1 .275.458c.13.226.244.42.364.582l.273.375c.34.472.692.96 1.135 1.4.7.697 1.85 1.482 2.795 1.906.93.418 1.895.472 2.63.472a19.86 19.86 0 0 0 .58-.01c.758-.023 1.557-.065 2.37-.196-.163.913.072 1.76.2 2.216l.01.035c.35 1.262 1.167 4.218 3.32 4.218.107 0 .215-.008.32-.024 1.255-.188 2.296-2.076 2.913-3.07.5.173 1.015.244 1.533.208-.257 1.127.426 2.355 1.467 2.856s2.34.32 3.295-.333 1.578-1.72 1.832-2.848c2.046.535 4.172.768 6.285.7.64-.024 1.3-.08 1.878-.358.9-.43 1.062-1.3 1.478-2.117.5-.966.754-2.036 1.233-3.012.26-.528.58-1.023.87-1.536a14.05 14.05 0 0 0 1.699-5.147c.2-1.683.113-3.4.303-5.076a10.98 10.98 0 0 1 .354-1.827M34.546 28.3c-.743.775-1.1 1.835-1.398 2.866a47.78 47.78 0 0 0-1.517 19.204c1.083.684 2.465-.13 3.48-.914l6.062-4.697c1.292-1 2.63-2.057 3.327-3.534.736-1.558.654-3.404.14-5.05s-1.425-3.133-2.327-4.6c-.333-.543-.68-1.1-1.203-1.467-.393-.275-.86-.42-1.294-.624-1.854-.864-3.1-3.46-5.268-1.184"/></g><path d="M46.612 33.3c-2.905-.57-5.993-.08-8.605 1.3-2.472 1.308-4.115 3.968-4.996 6.585-.87 2.59-1.165 5.33-1.78 7.992-.195.843-.423 1.697-.35 2.558.05.584.238 1.146.423 1.7l1.367 4.08-.86 4.568c-.21 1.113-.42 2.235-.384 3.367.038 1.21.354 2.395.67 3.565l.787 2.923c.15.554.3 1.116.594 1.6.22.368.513.692.688 1.082.17.38.22.8.273 1.213l.822 4.856c.263 1.388.558 2.846 1.48 3.92 4.032 4.7 10.485-1.685 15.193-1.01 2.204.316 4.017 1.836 5.7 3.294l2.972 2.577c.54.467 1.137.96 1.85.986.348.013.69-.09 1.018-.2 3.234-1.2 5.46-4.342 6.34-7.677s.602-6.863.094-10.275c-.325-2.187-.746-4.374-1.525-6.443-2.298-6.102-7.488-10.676-10.37-16.525-2.134-4.33-3.356-8.868-6.37-12.728-1.208-1.548-3.01-2.902-4.962-3.296l-.065-.013" class="F"/><path d="M65.055 72.976c.015-.48.152-.947.288-1.407.31-1.052.815-2.056 1.158-3.108.48-1.475.87-2.995.926-4.545.053-1.476-.2-2.945-.4-4.41-.62-4.77-.593-9.654-1.875-14.292s-4.2-9.18-8.756-10.76c-1.326-.46-2.73-.65-4.12-.837-4.77-.64-10.554-1.993-14.846 1.02-1.195.84-2.14 1.982-3.016 3.15-.978 1.303-1.93 2.804-1.785 4.426-.106-1.194 2.22-3.31 2.98-4.064 1.15-1.14 2.477-1.726 4.137-1.88.708-.066 1.455.04 2.05.433 2.32 1.537 3.43 3.973 4.193 6.595.212.732.4 1.49.315 2.25-.18 1.586-1.526 2.804-2.96 3.503s-3.028 1.033-4.457 1.746c-.69.344-1.234.922-1.806 1.425-.212.187-.43.38-.562.63-.17.324-.18.706-.188 1.073l-.028 1.633c-.016.966-.037 1.955-.384 2.856-.6 1.554-2.128 2.75-2.237 4.4-.034.522.07 1.092-.21 1.533-.187.295-.51.47-.797.67s-.567.477-.584.826c-.018.387.287.704.57.967.648.606 1.37 1.26 2.252 1.49.793.206 1.878-.106 2.525.51.54.515.4 1.434-.008 2.066s-.992 1.134-1.316 1.806c2.17-.02 4.33.945 5.762 2.576a18.41 18.41 0 0 1-7.228 2.06c-.134.798.35 1.657 1.102 1.956.656.26 1.392.114 2.1.122s1.526.283 1.725.96c.222.752-.445 1.45-1.047 1.953l-1.528 1.275c-.192.16-.403.365-.375.614.018.16.132.3.24.408.483.522.977 1.054 1.6 1.396 1.197.657 2.93.406 4.172.05a44.98 44.98 0 0 0 3.783-1.266c1.426-.548 2.865-1.178 4.392-1.23 2.358-.08 4.55 1.24 6.29 2.83 1.256 1.147 2.4 2.49 3.982 3.14a5.4 5.4 0 0 0 3.903.07C66.24 89.14 67.3 88.19 67.9 87c.726-1.444.76-3.137.593-4.744s-.518-3.2-.505-4.817c.01-1.206.156-2.596-.7-3.436-.447-.434-1.085-.62-1.56-1.024s-.698-1.253-.183-1.605" class="K"/><path d="M38.655 53.668a11.47 11.47 0 0 1 3.484-1.963l-.347.35c1.458-.622 3.08-.75 4.666-.706l-.374.187c.81-.068 1.632.037 2.398.307-.66-.56-1.492-.884-2.34-1.05s-1.718-.18-2.583-.184c-.744-.002-1.503.007-2.206.25l.614-.353c-1.497.157-2.944.762-4.106 1.717l-.27-.488c.043.08.004.322.032.428a1.24 1.24 0 0 0 .211.416c-.372-.27-.39-.07-.194.273.21.363.65.64 1.017.817" class="C"/><path d="M45.713 54.68c.348.148.675.346.966.586.13.107.26.226.42.28s.366.017.45-.13c.098-.17-.01-.383-.126-.54-.66-.89-1.816-1.548-2.94-1.58-.413-.012-.854.17-.532.63.304.437 1.3.556 1.762.753" class="F"/><path d="M35.125 55.917c-.083 1.513-.755 2.922-1.414 4.286l-.033-1.217c-.005-.164-.014-.343-.12-.468-.206-.24-.63-.097-.79.174s-.15.607-.174.922c-.104 1.25-.87 2.36-1.065 3.598l1.004-5.887c.418.102.85.203 1.275.125 1.205-.223.766-1.296-.075-1.695-.46-.217-1.016-.217-1.474.001-.077.037-.164.08-.243.05-.084-.033-.118-.132-.14-.22l-.338-1.292c-.026-.098-.317-.99-.314-.992.403-.212.864-.313 1.318-.287a1.81 1.81 0 0 0-1.657-.31c-.812-2.088 1.69-1.058 2.633-.488 1.183.715 1.685 2.398 1.612 3.7" class="K"/><path d="M34.016 53.346l-2.75-1.485c-.128-.077-.26-.158-.348-.28-.182-.248-.138-.6-.084-.9.027-.15.075-.326.22-.374.123-.04.252.036.358.1a11.06 11.06 0 0 1 1.355 1.124c-.02-.176-.06-.367-.048-.542.22.105.436.925.57 1.18l.355.614c.08.13.236.476.372.544m8.884.218a4.51 4.51 0 0 1 1.157-.104c1.115.044 2.168.498 3.178.97.313.147.626.297.915.5a6.67 6.67 0 0 0-3.27-1.842c-.687-.157-1.414-.203-2.092-.013-.633.178-1.608.76-1.675 1.493.483-.515 1.1-.842 1.787-.995" class="C"/><path d="M41.806 55.43c-.188.4.106 1.006.4 1.272a1.11 1.11 0 0 0 .346.217c.173.065.36.076.545.08 1.444.032 2.876-.276 4.067-1.074l-.875-.232c-.255-.095-.496-.224-.746-.333-.948-.413-2.02-.537-3.038-.35-.196.036-.397.087-.548.217a.58.58 0 0 0-.153.202" class="F"/><g class="C"><path d="M41.366 55.867c-.058.08-.137.14-.192.222s-.083.194-.028.276c.05.074.148.095.236.1l.788.133c-.328-.346-.253-.8-.13-1.223.057-.194.125-.4.255-.546.196-.235.508-.347.813-.365s.6.047.907.112l.652.14c.133.03.274.06.375.153s.143.264.05.365a2.36 2.36 0 0 1 .484-.105c-.02.154-.145.3-.297.323.22.016.444 0 .66-.047-.015.128-.092.247-.203.313.2.002.378-.045.546-.133a.56.56 0 0 1-.162.36c.27.013.542-.104.72-.307-1.217-1.146-2.988-1.673-4.634-1.38-.203.036-.406.084-.612.1a.43.43 0 0 0 .217.17 2.02 2.02 0 0 1-1.508-.565c-.1.06-.02.198.058.27a2.1 2.1 0 0 0 .862.486c-.355.03-.72-.036-1.04-.188.174.082.306.27.498.352s.4.1.598.127c.24.02.27-.023.277.216a1.25 1.25 0 0 1-.19.64m2.042-1.186c.015.003.03.007.04.02.02.024.004.06-.01.087-.073.136-.097.306-.033.447s.226.24.376.205a.38.38 0 0 0 .188-.117c.094-.098.155-.238.127-.37.062.07.184.048.26.104.06.043.08.122.085.195.028.33-.144.67-.427.845-.265.164-.635.17-.876-.028-.204-.167-.286-.44-.356-.693-.017-.06-.034-.124-.03-.187.006-.076.042-.146.078-.213.14-.262.275-.36.576-.293m-1.333 3.058c.652.243 1.362.307 2.056.25s1.373-.232 2.03-.457a3.66 3.66 0 0 1-1.9.79 3.67 3.67 0 0 1-2.03-.377c-.166-.085-.342-.2-.446-.35l.3.144m3.735-1.244c.506-.16 1.035-.406 1.275-.878a4.26 4.26 0 0 0-1.125-1.006 4.9 4.9 0 0 1 1.831 1.175c-1.316 1.038-3.03 1.486-4.705 1.496-.353.002-.72-.015-1.048-.154-.083-.035-.392-.16-.34-.296.04-.105.26-.04.34-.03a8.84 8.84 0 0 0 2.427.003 8.39 8.39 0 0 0 1.346-.31"/><path d="M42.625 55.636c.035.13.093.252.158.37a.93.93 0 0 0 .134.196c.06.063.135.1.213.148a1.09 1.09 0 0 0 1.204-.208c.304-.308.44-.772.338-1.192-.01-.046-.012-.114.035-.12.034-.005.06.03.073.06.05.12.05.253.046.382-.01.27-.038.542-.135.794s-.27.482-.512.603a1.23 1.23 0 0 1-.327.103 1.59 1.59 0 0 1-.824-.052c-.262-.095-.495-.28-.62-.53-.043-.086-.072-.177-.096-.27-.074-.3-.1-.6.017-.88.084-.217.33-.535.592-.527-.01.145-.212.323-.265.473-.074.208-.088.437-.03.65m-8.32-.21c-.113-.125-.233-.244-.374-.336s-.297-.156-.457-.208a3.51 3.51 0 0 0-1.384-.16c-.332.028-.658.104-1 .14s-.677.028-.984-.102c.168.245.505.293.802.3.2.01.406.02.6-.037-.242.276-.624.42-.988.374.376.097.785.057 1.135-.112-.07.172-.224.306-.403.352.17.015.344-.02.494-.102-.024.072-.077.134-.144.17a.56.56 0 0 0 .407-.028c-.053-.22.1-.45.316-.543s.445-.083.67-.053c.186.025.37.06.546.126.273.1.515.27.73.465.194.177.357.45.563.597.01-.282-.362-.656-.538-.852"/><path d="M33.023 55.586c.016.058.042.115.085.156s.108.062.166.044c.1-.03.124-.14.13-.234.005-.104-.01-.2-.04-.307l.13.016c.01.001.023.003.032.01s.018.02.023.034c.15.35.052.8-.23 1.043-.023.022-.05.042-.082.043-.026 0-.05-.013-.072-.026-.067-.04-.135-.08-.184-.142-.042-.052-.066-.116-.1-.178-.056-.146-.112-.296-.112-.452 0-.145.052-.3.143-.402.01-.014.098-.013.1.002.025.028-.01.082-.016.115a.61.61 0 0 0 .007.28m-.4.172a1.14 1.14 0 0 0 .01.3c.023.107.075.205.128.3.06.1.12.223.212.308s.22.142.343.115c.074-.016.14-.06.195-.112.176-.162.27-.398.3-.636s-.003-.478-.05-.713c.052.007.093.05.113.1s.022.103.023.155l.018.572a1.11 1.11 0 0 1-.022.325c-.058.217-.243.38-.447.473a.54.54 0 0 1-.299.059c-.154-.023-.272-.146-.376-.262-.083-.1-.166-.184-.225-.292-.1-.184-.122-.4-.142-.608-.01-.1-.017-.18-.002-.268.018-.107.07-.203.092-.3.012-.056-.002-.1.053-.12.033-.013.07-.004.093.02.056.052.022.168.014.23l-.03.352m1.76 1.457c.016.027.004.064-.02.086s-.055.03-.086.038a4.33 4.33 0 0 1-.62.12c-.166.02-.336.033-.5-.006-.15-.037-.33-.135-.387-.288.07-.046.244.058.323.075a2.31 2.31 0 0 0 .428.05c.288.008.576-.03.86-.076m-.745.566c-.322.298-.773.4-1.2.493-.013.013.006.033.023.04a.51.51 0 0 0 .264.04c.057-.007.112-.023.166-.04.198-.057.4-.104.586-.197.17-.085.37-.237.418-.43-.1-.07-.193.036-.256.094m.252.434c.046-.03.096-.06.15-.057-.063.153-.215.247-.363.32a1.82 1.82 0 0 1-.457.167c-.07.013-.435.04-.248-.057.13-.068.32-.077.46-.136a3.18 3.18 0 0 0 .457-.239m3.257-4.298l.115.993c.174 1.933-.795 3.806-2.055 5.283.918-1.23 1.52-2.733 1.5-4.267l-.058-1.154c-.006-.673.1-1.667.514-2.215.218.187-.025 1.06-.005 1.36m-4.255 8.346l-.573 1.017-.525.775a2.5 2.5 0 0 0-.086 2.184c.45 1.007 1.504 1.585 2.506 2.046.254.116.522.232.8.212-.516-.47-1.194-.7-1.818-1.023s-1.247-.755-1.464-1.418c-.077-.235-.098-.485-.108-.732a1.54 1.54 0 0 1 .021-.389c.038-.17.13-.325.218-.477a21.53 21.53 0 0 0 1.525-3.174l-.496.978m2.114 4.728c-.062.075-.147.13-.212.204s-.1.18-.074.27.15.135.25.124.2-.063.275-.113c.205-.12.414-.238.644-.3s.485-.058.693.056c.145.08.258.2.382.32s.277.208.444.203.334-.154.303-.318c-.024-.126-.146-.206-.256-.27-.404-.237-.824-.48-1.3-.526a2.46 2.46 0 0 0-.493.01c-.2.023-.425.063-.608.172s-.33.296-.338.508"/></g><path d="M41.61 59.354a8.25 8.25 0 0 0 6.063-.325c.37-.172.743-.377 1.152-.407.944-.07 1.73.87 1.806 1.813s-.367 1.85-.874 2.65-1.1 1.567-1.38 2.472c-.38 1.23-.133 2.555.018 3.835.263 2.225.123 4.746-1.482 6.3-.146.142-.31.28-.5.325-.414.097-.822-.237-.994-.625s-.18-.827-.257-1.245c-.238-1.29-1.124-2.342-1.9-3.405-1.615-2.242-2.812-4.784-3.51-7.457-.417-1.596-.667-4.796 1.857-3.938" class="F"/><path d="M33.97 63.542c-.077.517-.183 1.087-.596 1.408-.193.15-.43.225-.64.347s-.408.316-.42.56c-.006.13.044.257.103.374.384.75 1.166 1.194 1.905 1.597a3.69 3.69 0 0 1-1.09-1.346c-.064-.135-.12-.28-.107-.427.042-.49.73-.625.987-1.046.127-.208.133-.464.136-.708.01-.743.12-1.575.015-2.307-.26.235-.24 1.2-.293 1.55" class="C"/><path d="M35.595 63.3c5.537 1.22 11.25 1.937 16.884 1.303s11.217-2.694 15.428-6.492c.684-.617 1.62-1.325 2.425-.876.507.283.697.947.598 1.518s-.425 1.075-.744 1.56c-2.3 3.496-4.623 7.024-7.63 9.932-1.37 1.325-2.873 2.51-4.196 3.883-1.568 1.626-2.866 3.494-4.4 5.153a24.37 24.37 0 0 1-12.485 7.178c-.82.182-1.67.322-2.493.156-1.653-.335-2.838-1.85-3.397-3.44s-.635-3.305-.955-4.96c-.475-2.46-1.485-4.78-2.277-7.16-.69-2.075-1.223-4.26-1.062-6.462.077-1.054.416-1.39 1.497-1.558.93-.145 1.903.064 2.808.264" class="N"/><path d="M68.863 92.754c-.252-3.29-.945-6.555-1.616-9.713l-.117-.552.838-1.133.652-.94c.066-.1.176-.27.185-.49.012-.305-.173-.53-.273-.65l-4.176-4.842c-.27-.302-.494-.636-.73-1l-.623-.87-.23-.278c-.185.12-.355.27-.537.384-.36.226-.825.344-1.206.54-.806.415-1.562.93-2.24 1.533l-1.21 1.188-3.572 3.272c-1.668 1.46-3.366 3.03-5.4 3.97l-3.758 1.74.648.262-.042.092-.172.366c.143.084.45.613.596.868l.307.496.28.384c.32.443.65.9 1.04 1.29a9.73 9.73 0 0 0 2.529 1.723c.773.348 1.616.393 2.263.393l.554-.01c.98-.03 2.028-.092 3.058-.35a10.56 10.56 0 0 0 1.322-.431 4.17 4.17 0 0 0-.548.509c-.796.896-.648 1.947-.37 2.95l.01.035c.46 1.657 1.152 3.558 2.454 3.558a1.26 1.26 0 0 0 .187-.014c.603-.1.957-.614 1.198-1.06a18.69 18.69 0 0 0 1.298-3.002c.222.217.493.382.787.482l-.318.328 1.267-.247a2.59 2.59 0 0 0 .835-.324 8.49 8.49 0 0 0 .214 1.176 5.83 5.83 0 0 0 .13.757c.246.987 1.027 2.05 2.163 2.05h.035c.264-.005.495-.07.687-.194.23-.146.373-.357.475-.545.305-.222.567-.516.745-.854.474-.903.44-1.953.37-2.866" class="C"/><path d="M50.214 90.04c-.776-.35-1.8-1.035-2.41-1.64-.48-.478-.878-1.087-1.282-1.63-.24-.325-.707-1.33-1.056-1.49 1.082.488 2.195.984 3.38 1.05.644.035 1.29-.06 1.92-.187 2.41-.487 4.772-1.51 6.48-3.276-1.6 1.208-3.463 2.117-5.437 2.516s-4.07.275-5.936-.48l3.473-1.6 2.506-1.225c2.026-1.095 3.87-2.493 5.592-4.016l2.567-2.425c.745-.74 1.5-1.812 2.376-2.374.48.585.84 1.286 1.366 1.872l4.165 4.83c.1.11.186.233.18.375-.004.104-.063.197-.12.284-2.43 3.718-5.917 6.74-9.944 8.615-.715.333-1.448.63-2.213.822-.97.242-1.974.307-2.972.337-.895.027-1.822.02-2.64-.347" class="N"/><path d="M68.22 79.535l-4.165-4.83c-.527-.586-.886-1.287-1.366-1.873-.877.562-1.63 1.633-2.377 2.374l-2.566 2.424-.39.34 2.023-1.156c.637-.402 1.2-.9 1.872-1.26.462-.24 1.114-.458 1.534-.02.296.31.283.772.156 1.152-.348 1.035-1.33 1.903-2.1 2.627-.955.897-1.975 1.724-3.01 2.528l-1.46 1.163 1.642-.848 1.88-1.086c.47-.27.922-.592 1.422-.805.703-.3 1.614-.367 2.105.332.424.604.257 1.45.064 2.105-.53 1.8-1.84 3.196-3.306 4.3-1.87 1.42-4.03 2.424-6.338 2.884l-.344.058c.884-.036 1.77-.108 2.627-.322.765-.19 1.498-.49 2.213-.822 4.027-1.876 7.514-4.896 9.944-8.615.057-.087.115-.18.12-.284.006-.142-.1-.266-.18-.375" class="O"/><path d="M58.917 96.652c.424-.063.697-.473.902-.85a18.31 18.31 0 0 0 1.524-3.766 1.65 1.65 0 0 0 1.519 1.139 1.65 1.65 0 0 0 1.542-1.108c-.032.984.118 1.974.44 2.905.197.57.5 1.16 1.043 1.42.812.4 1.828-.163 2.25-.96s.394-1.748.325-2.647c-.25-3.258-.93-6.465-1.608-9.66-.56.98-1.46 1.712-2.34 2.42l-3.82 2.918c-1.114.765-2.795 1.317-3.693 2.33-.67.756-.534 1.667-.283 2.573.233.842.944 3.476 2.2 3.288" class="N"/><path d="M64.034 86.543c.25-.122.575-.224.8-.045.25.205.154.606.007.894-.546 1.075-1.465 1.906-2.37 2.704-.2.17-.388.344-.502.573s-.125.528.042.722c.247.288.704.202 1.07.102s.837-.157 1.052.156c.2.275.035.665-.206.896s-.556.375-.788.614a2.21 2.21 0 0 0 1.283-.77c.227.873.148 1.803.366 2.678s.895 1.76 1.798 1.743c.167-.003.337-.04.477-.13.175-.112.3-.297.383-.483.564-1.142.46-2.498.2-3.745L66.5 88.057c-.318-1.48-.436-3.047.033-4.485-.245.306-.543.564-.84.82L60.28 88.77c-.4.287-.84.563-1.344.64 1.883-.2 3.458-2.067 5.1-2.867M71.08 59.9c.1-.185.33-.328.32-.54-.004-.067-.03-.13-.052-.194-.183-.547-.08-1.2-.523-1.637-.462-.465-1.126-.54-1.7-.27-.502.23-.9.634-1.33.978-.445.353-.934.648-1.42.94l-3.5 2.105-1.168.672c-.8.418-1.645.74-2.488 1.06-2.748 1.045-5.737 1.542-8.667 1.738a41.65 41.65 0 0 1-7.898-.22l-1.813-.25-1.823-.267c-.444-.07-.85-.26-1.287-.38-1.034-.28-2.116-.724-3.2-.7l-1.254.038c.712-.003 1.07.723 1.308 1.267.256.585.77 1.092 1.28 1.46 1.072.78 2.4 1.092 3.673 1.374l3.8.842 4.384.8c2.076.233 4.183.156 6.245-.18.582-.095 1.445.03 1.387.615-.017.172-.126.32-.236.453-1.187 1.425-3.03 2.16-4.863 2.445s-3.7.172-5.556.203c-1.886.032-3.77.215-5.626.545-.55.098-1.172.26-1.43.757-.324.624.12 1.365.594 1.884s1.042 1.1.986 1.792c-.08 1-1.4 1.78-1 2.692.363.85 1.653.56 2.483.97 1.062.523 1.077 2.115.434 3.1-.836 1.293-2.982 1.067-2.3 2.554l.712.112c.32.027.625.098.945.083 2.296-.105 4.575-1.3 6.57-2.37a34.06 34.06 0 0 0 5.812-3.908l3.84-3.203c1.62-1.267 2.936-2.706 4.324-4.198l5.75-5.94c1.47-1.65 2.82-3.433 3.758-5.443.508-1.1 1.75-3.745-.26-4.145-.4-.078-.8.063-1.158.217-1.6.66-3.05 1.577-4.485 2.52-1.254.824-2.384 1.74-3.806 2.3-.88.353-1.8.62-2.706.86l-.082.022" class="O"/><path d="M31.464 63.544c1.56-.737 3.23-.255 4.81.153 1.643.423 3.317.75 4.993 1 3.286.51 6.68.828 10.006.74.5-.014.513-.804 0-.795-3.686.064-7.296-.084-10.938-.704-1.67-.284-3.303-.73-4.97-1.02-1.35-.234-2.78-.273-3.926.577-.023.017-.004.052.023.04" class="C"/><path d="M62.5 66.748c-1.18-.077-2.357-.113-3.535.017l-2.1.188c-.314.027-.627.05-.936.154l1.6.01 2.627.287c.157.022.417.2.4.304a.71.71 0 0 1-.301.501c-.484.272-.98.562-1.5.708l-3.332.762c-.72.137-1.46.205-2.2.25l-2.98.1a31.25 31.25 0 0 1-1.837-.013c-1.237.044-4.2-.448-5.68-.975-.92-.255-1.8-.62-2.703-.964l-2.314-.97-1.888-.962-2.1-1.176c-.26-.15-.5-.33-.748-.496l-.065.087.968.76 1.18.764 1.788 1.087 1.6.903 2.37 1.1 1.937.782 1.72.525 1.72.442 1.993.35 3 .226c.316.02.637.003.954-.02l2.47-.205c1.34-.1 2.645-.35 3.95-.664 1.232-.297 2.388-.752 3.443-1.42.507-.32 1.03-.703 1.23-1.36.194-.632-.07-1.037-.754-1.083m-5.22 5.73l-2.726.146c-.883 0-1.767-.08-2.648-.15l-2.2-.242-3.695-.76-.97-.223c-2.33-.743-4.618-1.602-6.83-2.65l-.05.077.918.66 1.832 1.062c.468.247.966.435 1.452.646l1.343.572 1.54.512c.148.047.303.072.454.107l2.03.536c1.468.35 3.053.572 4.57.556l2.845-.045c1.124-.094 2.22-.353 3.232-.946l-1.083.14" fill="#8c3927"/><g class="C"><path d="M61.094 82.318c.058.416.135.826.304 1.21.197.45.508.836.816 1.218l.773.96c.184.28.296.573.527.833 1.202 1.356 2.1 2.955 3.286 4.315 1.27 1.444 3.03 2.525 4.826 3.2 1.155.428 2.667 1.196 3.837.488.727-.44 1.19-1.226 1.414-2.045s.24-1.678.25-2.527l.058-3.894c.01-.63.023-1.28.284-1.855.256-.56.72-.99 1.155-1.428.636-.643 1.24-1.354 1.54-2.207.736-2.075-1.284-4.725-2.156-6.52-.955-1.97-1.927-3.995-2.123-6.176-.232-2.576.636-5.104 1.173-7.634.456-2.146.395-4.058-.038-6.187-.422-2.078-1.496-3.88-1.497-6.08 0-.858.134-1.712.144-2.57.016-1.304-.256-2.598-.627-3.848-2.53-8.515-10.13-15.308-18.875-16.875-1.286-.23-2.595-.357-3.85-.715-1.194-.34-2.338-.89-3.57-1.035-1.353-.16-2.7.175-4.032.508-2.146.54-4.36 1.112-6.116 2.458s-2.95 3.685-2.287 5.796l-.663-1.385c-.145 1.184-.196 2.444.348 3.506.58 1.13 1.637 1.52 2.828 1.42 1.402-.12 2.76-.34 4.158-.015s2.725 1.132 3.486 2.353c.577.927.802 2.023.997 3.097.526 2.902.905 5.83 1.134 8.772.253 3.237.325 6.496.855 9.7s1.55 6.394 3.505 8.988c.83 1.1 1.86 2.048 2.986 2.837.273.19.66.337.877.578.263.292.412.768.568 1.123.61 1.384 1.226 2.803 1.32 4.312.043.7-.03 1.405.02 2.105s.242 1.423.726 1.932c-.14-1.104-.252-2.332.407-3.23-.124 1.05.646 1.973.96 2.982.156.5.2 1.03.272 1.552"/><path d="M56.77 74.624l.094.63c.188 1.57-.162 3.043-.145 4.6.013 1.153.503 2.272 1.25 3.15s1.744 1.54 2.392 2.495a4.48 4.48 0 0 1-.028 4.945c.76-1.175 1.55-2.475 1.398-3.865-.156-1.427-1.253-2.534-2.144-3.66-.903-1.14-1.67-2.52-1.538-3.966.098-1.064.665-2.015 1.102-3 .77-1.72 1.214-3.9.4-5.68-.33-.724-.886-1.394-1.276-2.1a12.98 12.98 0 0 0-1.605-2.306c-.455-.522-.986-1.026-1.657-1.196-.52-.132-1.073-.046-1.582.12-.318.104-.637.248-.855.502-.266.312-.34.748-.314 1.157.057.895.542 1.7 1.115 2.4l1.798 2.002c.85 1.1 1.353 2.42 1.595 3.78M39.436 25.05l5.22-1.6c1.854-.502 3.773-.945 5.68-.724.977.114 1.926.4 2.894.573a12.79 12.79 0 0 0 2.678.194c1.276-.042 2.556-.274 3.82-.107s2.572.85 3.007 2.05c-.832-.907-1.88-1.77-3.112-1.783-.55-.006-1.083.16-1.623.26-2.883.535-5.892-.8-8.752-.156-1.35.304-2.736 1.042-4.04.578"/><path d="M39.188 24.67c.555-.618 1.144-1.238 1.898-1.588s1.715-.375 2.36.15a2.26 2.26 0 0 0-1.18.03c-.217.065-.46.218-.442.444.012.15.146.268.293.306s.3.01.446-.028c.794-.203 1.516-.627 2.268-.956l.937-.362a3.89 3.89 0 0 1 2.724.222 4.89 4.89 0 0 0-3.874.534c-.123.076-.255.176-.27.32-.02.17.126.306.226.444.27.375-.2.78-.467.986l-1.318 1c-.435.334-.892.678-1.43.78-.564.105-1.156-.07-1.715.06-.572.13-1.8.706-1.862-.354-.04-.8.937-1.473 1.407-1.997m-8.595 10.463c-.198-.738-.345-1.514-.196-2.264.085-.43.292-.866.675-1.077-.183.233-.25.536-.283.83-.017.154-.025.315.032.46s.195.268.35.262c.143-.007.263-.12.318-.253s.057-.28.053-.422c-.02-.96-.234-1.938-.006-2.873.24-.98.947-1.794 1.762-2.4.758-.555 1.7-.968 2.624-.755a4.5 4.5 0 0 0-3.156 1.714 4.5 4.5 0 0 0-.857 3.487c.125.702.418 1.372.474 2.083.05.617-.087 1.23-.32 1.8-.2.515-.522 1.22-.937 1.596-.143-.308-.143-.765-.232-1.107l-.302-1.093"/></g><g class="K"><path d="M48.996 42.92c.3 1.16.477 2.356.635 3.542l.34 3.46.368 6.864c.22 2.22.658 4.434 1.48 6.512.356.9.775 1.792 1.317 2.597.525.777 1.132 1.505 1.803 2.16 1.446 1.412 3.2 2.534 5.195 2.993.106.025.152-.137.045-.165-1.8-.457-3.35-1.448-4.627-2.77-1.263-1.306-2.217-2.948-2.932-4.6-.86-2-1.315-4.153-1.637-6.298l-.413-3.3-.33-3.38-.38-3.8a25.75 25.75 0 0 0-.833-3.824c-.007-.02-.038-.01-.032.01M37.387 28.198c-.75.852-.973 2.165-.823 3.258s.808 2.174 1.872 2.587c.087.033.128-.083.08-.14-.618-.766-1.205-1.585-1.487-2.543a3.85 3.85 0 0 1-.115-1.563c.072-.557.285-1.058.52-1.563.013-.03-.023-.063-.047-.036"/><path d="M38.798 34.203c.032.027.065.052.1.075s.076.043.117.06c.077.033.16.068.244.076.028.002.027-.035.006-.044-.037-.015-.075-.025-.113-.038l-.115-.046-.108-.053-.1-.056c-.015-.01-.035.014-.02.026m-.607-5.423a3.75 3.75 0 0 0-.247 1.562c.027.52.135 1.03.214 1.544.077.496.23 1.05.554 1.446.155.2.315.342.502.494.17.137.34.294.548.37.04.015.072-.043.042-.07-.168-.16-.337-.308-.4-.54a7.78 7.78 0 0 0-.22-.599c-.178-.438-.484-.83-.718-1.238-.494-.867-.492-2.02-.23-2.96.007-.023-.028-.032-.036-.01m1.59 4.547c-.03-.294-.1-.583-.155-.876l-.114-.993c-.06-.623-.04-1.253.15-1.855.32-1.007 1.08-1.82 2.03-2.26.106-.05.03-.22-.08-.187-1.066.322-1.74 1.307-2.07 2.322-.2.614-.27 1.263-.26 1.907.006.324.06.655.137.97.08.33.167.68.323.98.008.016.037.01.035-.01m-3.913-1.917c-.13.518.166 1.058.406 1.5.12.223.253.43.44.605s.397.306.63.4c.117.047.166-.14.052-.187-.42-.173-.8-.472-1.06-.854a3.46 3.46 0 0 1-.334-.663c-.098-.255-.155-.523-.117-.797.001-.01-.014-.016-.017-.005m-.348.84c.01.122.013.24.044.36s.076.242.13.357.115.223.187.325.153.2.254.285c.073.055.145-.058.093-.12L36 33.2a1.94 1.94 0 0 1-.195-.299 1.95 1.95 0 0 1-.136-.322c-.036-.1-.076-.225-.092-.34-.004-.03-.053-.022-.05.007M53.97 53.44c.812-4.832.87-9.672.095-14.52 1.05 2.3 1 11.585-.095 14.52m.03-9.847c.235 4.283-.123 8.5-1.202 12.667.753-4.188 1.136-8.413 1.202-12.667m.8-4.023c.796 3.737 1.264 7.483.22 11.258.76-3.77.266-7.5-.22-11.258"/></g><path d="M75.638 32.23c2.88 7.76 1.42 16.446-1.202 24.047-1.348 3.9-2.925 7.744-4.404 11.605l-2.402 6.1c-1.295 3.2-2.65 6.094-2.386 9.648.02.28.166.653.44.594a22.33 22.33 0 0 1 1.864-5.934c.383-.806.82-1.605.97-2.484a4.04 4.04 0 0 0-.245-2.211c-.083-.2-.185-.408-.16-.624.04-.36.4-.58.704-.78 1.397-.924 1.995-2.443 2.56-3.946 2.85-7.583 5.98-15.378 6.446-23.555.246-4.327-.37-8.528-2.13-12.5-.014-.03-.066-.01-.054.023m2.615 32.49c-.303.697-.8 1.33-1.162 1.997l-1.107 2.035-2.333 4.013-4.18 6.394c-1.394 1.82-2.964 3.577-3.408 5.907l5.127-5.644c.86-.82 1.26-1.8 1.866-2.797l2.14-3.8L77 69.018l.724-1.715c.313-.785.475-1.64.8-2.4.086-.197-.204-.368-.3-.17" class="C"/><path d="M41.125 84.024c-.836 1.293-1.295 1.728-2.31 2.554a4.73 4.73 0 0 0 .712.112" class="O"/><path d="M135.226 42.194c-.21-.29-.475-.413-.608-.474-.54-.252-.998-.895-1.255-1.765-.153-.518-.24-1.073-.33-1.66l-.243-1.36c-.338-1.51-.986-2.624-1.923-3.313-.138-.1-.293-.194-.456-.28l.023-.357c.17-3.3-1-6.203-2.112-8.666-.637-1.412-1.423-2.727-2.184-4l-1.937-3.494-.326-.71c-.9-1.962-1.81-3.988-4.727-4.376-.7-.54-1.353-1.133-2.043-1.757-1.04-.943-2.114-1.917-3.374-2.71-1.927-1.21-4.227-2.045-7.034-2.55l-3.838-.63c-3.775-.587-7.34-1.142-10.898-2.483-.13-.05-.31-.123-.526-.213C89.8.722 87.928 0 86.452 0c-.775 0-1.31.2-1.676.48-.345-.258-.798-.388-1.353-.388-.9 0-1.948.327-2.943.66l-.402.13c-1.528.42-3.137.73-4.69 1.033l-1.846.363c-1.33.262-2.707.534-3.965 1.278-.356.21-2.623 1.95-2.21 3.454.01.033.023.076.042.126-.96.8-1.883 1.806-2.03 3.19-.124 1.18.42 2.058.858 2.764.294.474.492.81.538 1.134-1.124.804-1.297 2.006-.657 4.485-1.173 2.37-1.553 4.99-1.91 7.532-.4 2.764-.758 5.376-2.084 7.57-.11.183-.228.364-.346.545-.43.664-.92 1.417-1.128 2.327-.396 1.733.34 3.307 1 4.696.51 1.09.99 2.117.913 3.09-.054.676-.39 1.386-.717 2.072l-.048.1c-.008.003-.016.004-.024.006-.746.27-1.15.977-1.417 1.447l-.104.178c-.778 1.292-1.584 2.63-2.14 4.12-.623 1.672-.676 3.435-.6 4.62.01.17.033.334.05.5a1.85 1.85 0 0 0-.546.861c-.182.63-.02 1.212.075 1.56.148.535.31 1.068.484 1.584l.245.728c.1.3.2.677.263 1.046.06.427.05.89.038 1.38l-.01.728c.015 1.74.406 3.378.84 5.042.872 3.342 2.697 6.398 4.462 9.353l1.57 2.682 5.56 9.927c.145.26.447.797 1.1.995a1.53 1.53 0 0 0 .439.065 1.55 1.55 0 0 0 .462-.076c.63-.085 1.04-.533 1.203-.713.275-.307.5-.658.78-.94.352-.344.7-.693 1.018-1.067.208-.245.404-.5.624-.735a15.92 15.92 0 0 1 1.726-1.585c.756-.595 1.427-1.34 2.113-2l1.296-1.252a31.37 31.37 0 0 1 1.927-1.662c1.237.766 2.584 2.03 2.806 3.984l.14 1.375c.233 2.447.475 4.977 1.803 7.23.79 1.337 1.725 1.618 2.372 1.618 1.878 0 3.416-2.428 4.28-4.172.236.154.5.278.75.36-.2 1.22-.226 2.667.88 3.634.833.728 1.932.88 2.706.88.376 0 .758-.036 1.127-.104.17.194.378.356.617.48-.102.373-.1.774.075 1.163.203.425.682.932 1.816.932 1.626 0 4.333-1.016 5.387-1.438l.767.214a2.41 2.41 0 0 0 .643.084c1.353 0 2.98-.97 4.814-2.14l.85-.527c1.31-.75 2.522-1.613 3.694-2.448l1.72-1.204c.304-.205.682-.36 1.082-.522.558-.226 1.2-.483 1.756-.94l.046-.037c.395-.318.992-.8 1.13-1.64a1.43 1.43 0 0 0-.006-.494c1.247-.097 2.53-.204 2.978-1.2a1.42 1.42 0 0 0 .113-.413c1.005-.504 2.1-1.364 2.374-2.487.123-.487.087-.974-.1-1.43.256-.3.44-.588.56-.897.757-1.956-1.2-3.236-2.646-4.17l-.782-.524c-2.16-1.532-3.46-3.432-4.975-6.197-2.007-3.66-1.838-8.457.498-14.252.745-1.847 1.7-3.7 2.625-5.47 1.704-3.284 3.465-6.68 4.147-10.47l.256-1.468a10.88 10.88 0 0 1 .164.363l.1.207c.294.662.728 1.508 1.475 2.174.68.607 1.544.954 2.37.954a2.99 2.99 0 0 0 .566-.054c.542-.105 1.014-.48 1.202-.952a1.28 1.28 0 0 0-.149-1.222" class="C"/><path d="M90.014 14.073c2.023.566 4.026 1.296 5.767 2.473 2.232 1.51 3.924 3.675 5.542 5.83 2.06 2.742 4.075 5.55 5.497 8.67 2.693 5.91 3.1 12.582 3.208 19.077.082 4.967.003 10.003-1.328 14.79-.526 1.89-1.264 3.762-2.502 5.286-1.23 1.515-2.898 2.616-4.633 3.51C94.55 77.322 86.38 77.8 78.84 80.138c-2.772.86-5.547 1.987-8.45 1.91s-6.026-1.786-6.592-4.63c-.344-1.73.302-3.516.115-5.268-.304-2.848-2.762-5.31-2.406-8.15.19-1.52 1.178-3.093.5-4.473-.526-1.085-1.888-1.54-2.5-2.584-.723-1.256-.105-2.828.518-4.136l2.76-5.798c.372-.782.75-1.586.82-2.45.21-2.66-2.522-5.03-1.927-7.63.215-.943.844-1.726 1.345-2.554 2.822-4.667 1.628-10.913 4.286-15.675.448-.802 1.133-1.392 1.85-1.953 1.635-1.282 3.558-2.217 5.534-2.852 2.3-.74 4.726-1.036 7.136-1.016 2.455.02 4.905.366 7.285.963l.88.233" class="F"/><path d="M71.528 42.13c.95-.278 2.26 1.552 2.792 2.185.265.315.52.644.837.905.832.685 1.982.824 3.06.81a13.91 13.91 0 0 0 3.851-.598c.676-.205 1.416-.54 1.634-1.214.298-.917-.542-1.777-1.295-2.38l-1.8-1.438c-.6-.48-1.22-.968-1.953-1.187-.927-.276-1.943-.092-2.873-.357-.46-.13-.884-.368-1.285-.63-.735-.482-1.408-1.057-2-1.708-1.227-1.352-2.66-1.34-3.933.068-.67.74-.942 1.688-1.28 2.604-.734 1.993-1.075 4.1-1.4 6.19l-.218 1.362c-.17 1.056-.34 2.138-.132 3.187s.87 2.075 1.887 2.407c.687.224 1.44.108 2.13-.103.558-.17 1.16-.467 1.33-1.026.098-.326.026-.677-.047-1l-.315-1.4c-.12-.378.074-.805.15-1.187.3-1.488-.498-3.8.404-5.102.14-.2.296-.316.464-.365" class="I"/><path d="M68.997 41.085l-.057.447c-.026.2-.04.434.104.576.188.184.505.085.727-.055.55-.347 1.264-1.36.59-1.948-.727-.633-1.286.375-1.363.98" class="F"/><path d="M83.034 32.204c-.15.896-.353 1.818-.142 2.702.2.8.697 1.48 1.193 2.135l4.372 5.79c.355.47.72.963.832 1.542.2 1.03-.465 2.045-1.268 2.722s-1.768 1.153-2.522 1.885c-1.894 1.843-2.01 4.795-2.006 7.438l.02 9c.002.994-.002 2.02-.39 2.935-.54 1.27-1.733 2.124-2.906 2.85a40.31 40.31 0 0 1-9.693 4.36c-.775.232-1.577.45-2.23.925s-1.136 1.286-.976 2.08c.252 1.252 1.794 1.697 3.066 1.82 7.312.714 14.78-1.094 21.187-4.69s11.766-8.923 15.79-15.068c.9-1.375 1.742-2.805 2.26-4.364.657-1.983.8-4.174 1.896-5.947 1.016-1.63 2.73-2.696 3.914-4.206 1.996-2.546 2.216-6.345.527-9.103-2.568-4.195-8.304-5.196-11.728-8.727-1.715-1.768-2.754-4.077-4.3-6.002-1.412-1.77-3.22-3.184-5.09-4.46-1.864-1.27-3.838-2.43-6-3.037s-4.575-.615-6.61.36c-1.636.783-1.625 1.633-.95 3.047.69 1.447 1.162 3.04 1.507 4.602a24.64 24.64 0 0 1 .252 9.409" class="I"/><path d="M71.773 65.322c-1.855.364-2.125-.23-3.368-.55-.552-.142-1.257-.496-1.77-.708-.66-.273-.638-.495-1.63-.78-.166-.047-.862.13-.98.247-.297.294-.6.2-.894.025-.042-.13-.173-.233-.322-.168-.25.1-.436.305-.555.537-.232.196-.258.52-.152.822.048.492.428.84.93.936.145.028.325-.045.354-.208.023-.132.1-.166.18-.15.098.133.194.244.352.333a.99.99 0 0 0 .511.117l.213.044.495.124a1.43 1.43 0 0 0 .396.108 2.9 2.9 0 0 0 .672.082c.037.007.075.006.1-.003l.067-.002c.43-.03.812-.33 1.252-.236.07.015.13.008.188-.01.753-.236 1.718.263 2.458.385.355.058.725.178 1.107.25.582.108.745-1.266.38-1.194m-2.99 4.987c-.382-.057-.768-.06-1.153-.054.064-.134.02-.3-.178-.366-.762-.2-1.55-.3-2.314-.482.918-.28 3.25-.13 3.536-.063.064.015.02-.382-.04-.417-1.267-.727-2.525.307-3.744-.07-.068-.02-.163-.017-.215.04l-.05.054c-.008-.004-.013-.008-.022-.01-.156-.076-.334-.007-.384.163l-.086.285c-.04.133.038.246.15.304l-.297.043c-.194.036-.276.313-.098.427.222.142.417.502.633.83a.45.45 0 0 0 .005.133c.001.023.01.045.02.066.03.304.14.594.36.828.086.092.217.13.325.085.08.015.174-.006.228-.065.106-.117.224-.22.302-.358.187-.328.323-.608.65-.756l.204-.097c.698.058 1.438.028 2.13-.027.27-.022.327-.447.04-.5m.323-12.605c-.3-.001-.56.058-.842.127-.538.13-.842.007-1.175-.266l.07-.03c.156-.083.258-.288.125-.445-.75-.88-1.68-1.072-2.783-.823-.2.045-.415.115-.64.194l-1.474.234c-.302.052-.83.068-1.157.232-.105-.035-.206-.082-.3-.144-.192-.314-.898-.95-.998-.897-.264-.166-.004.38.108.63.098.22.45.697.6.754.327.257.722.366 1.104.523.487.2.94.457 1.408.696.104.053.202.03.276-.028.034.006.068.01.103.012.248.015.43-.247.272-.462-.025-.376.1-.46.35-.252a3.22 3.22 0 0 1 .384.287l.262.235c.05.07.095.114.178.186.098.085.143.2.242.3.113.103.242.14.376.15a.83.83 0 0 0 .213.037.5.5 0 0 0 .109-.004.24.24 0 0 0 .23.07c.172-.043.5-.158.774-.327-.013.073-.02.156-.02.256.003.2.142.3.33.292.8-.077 1.534-.5 2.1-1.05.187-.18.008-.474-.222-.475M64.86 36.674c-.001-.17-.245-.172-.262-.006a1.59 1.59 0 0 0-.14-.214c-.1-.112-.255-.063-.326.037-.126.178-.218.34-.248.533-.13-.038-.294.03-.344.18l-.122.343c.035-.727.06-1.45-.307-2.124-.107-.197-.435-.22-.5.024l-.107.367c-.38.448-.696.993-.837 1.557-.008.033-.007.067 0 .1-.033.15.045.328.2.367a1.82 1.82 0 0 0 .275.042l.182.137c.118.236.308.436.338.728.008.075.042.13.1.168a2.74 2.74 0 0 0 .257.548c.122.194.312.306.495.27.1.05.23.038.318-.044l-.108.428-.24.398c-.133.204.22.4.344.172l.085-.16c.008-.01.016-.018.023-.03l.028-.06c.337-.46.596-.996.8-1.532.255-.708.116-1.496.113-2.23m15.686 7.77c-1.157-.2-2.467-.406-3.644-.283-.234.025-.195.383.027.4.03.044.07.08.125.104a3.33 3.33 0 0 1 .572.323.22.22 0 0 0 .127.092l.023.005c.258.167.522.316.835.35.484.053 1.02-.217 1.484-.317a.22.22 0 0 0 .137-.082l.18-.08.058.001c.287-.001.38-.458.078-.514m6.865-1.59c-.215-1.298-.827-2.28-1.965-2.954-.438-.26-.915-.45-1.407-.607-.536-.28-1.126-.476-1.715-.65l-.858-.452-.16-.112c-.624-.567-1.264-1.16-2.114-1.28a2.53 2.53 0 0 0-.465-.012l-.955-.416c.6-.142 1.525.153 1.984.273.743.194 1.46.466 2.193.693a.28.28 0 0 0 .292-.45c-.633-.737-1.775-.87-2.676-1l-3.9-.58c-.114-.012-.252.052-.288.17l-.058.192c-.037.12-.01.242.093.32.274.207.623.324.984.395a.3.3 0 0 0 .063.115c-.12.105-.5.094-.62.092-.256-.004-.527-.063-.775.015-.015.005-.03.013-.043.022-.5-.058-1-.157-1.45-.552-.594-.5-1.13-.654-1.906-.663-.85-.01-2.303.13-2.3.9a.55.55 0 0 0-.056.1c-.107.174-.064.44-.002.626a.76.76 0 0 0 .133.25c.18.365.346.742.433 1.143-.204.15-.17.547.136.536l.075-.005c.478-.03.926-.144 1.375-.265.335-.015.645.036.846.226.28.264.396.48.8.58.08.02.16.028.24.03l.01.027c.294.9.47 1.66.982 2.457.126.195.232.4.292.615.03.116.04.236.05.357l-.053.187c-.03.104.02.252.126.297l.062.047c.06.1.174.17.288.13a4.12 4.12 0 0 1 .644-.167c.67.224 1.497.217 2.122.1.04-.008.082-.02.126-.037 1.175.012 2.366-.102 3.518.103l.43.07c.195.07.422.173.627.213l.37.13c.22.07.434-.234.246-.4-.307-.27-.693-.393-1.1-.43l-.28-.08-.06-.016c-.184-.05-.38-.1-.573-.12a12.69 12.69 0 0 0-1.618-.335 3.76 3.76 0 0 0-.694-.044c.016-.17-.055-.333-.262-.465-.112-.072-.25-.103-.398-.108-.014-.057-.038-.115-.076-.175a.53.53 0 0 0-.048-.066 1.23 1.23 0 0 0 .077-.154l3.8.88c.155.034.272-.08.313-.216l.03-.096c.027-.088-.024-.2-.092-.255-.427-.343-.923-.484-1.442-.633-.467-.134-.834-.4-1.238-.63a2.4 2.4 0 0 1 .721-.432c.45-.055.974.012 1.43.102l.324.103c.46.157.906.357 1.353.547l.102.04c.03.04.075.072.134.088.35.095.664.253.96.44.444.67 1.083 1.1 1.845 1.444.01.005.02.005.03.01.045.03.082.05.154.065s.138.018.206.022a.58.58 0 0 0 .199-.022l.07.022c.15.042.353-.1.325-.27m5.344 49.465l-.574 1.187c-.242.46-.507.912-.804 1.34-.137.198-.43.613-.755.84-.174-.002-.352-.08-.532-.26-.136-.138-.255-.294-.362-.46a.52.52 0 0 0 .416-.092c.173-.12.336-.253.5-.392a.81.81 0 0 0 .345-.21c.2-.218.387-.428.472-.7a8.15 8.15 0 0 0 .619-1.015 27.74 27.74 0 0 0 1.353-2.477l.002.228-.67 2.022zM96.477 40.9l-.144-.834-.204-1.696-.248-4.798.453 2.105c.225 1.292.3 2.63.403 3.94l-.1 2.13-.168-.847zm32.9 41.976c.537-1.4-1.623-2.414-3.046-3.423-2.46-1.745-3.874-3.96-5.298-6.56-2.578-4.706-1.508-10.33.444-15.174 2.12-5.262 5.7-10.058 6.7-15.73.53-2.952 1.015-6.075 1.17-9.07.15-2.93-.832-5.536-2.018-8.167-1.178-2.613-2.9-4.897-4.114-7.478-1.085-2.308-1.642-4.256-4.5-4.506-1.942-1.443-3.52-3.298-5.577-4.592-2.033-1.278-4.3-1.98-6.65-2.402-5.082-.913-10.034-1.32-14.926-3.164-1.18-.445-6.35-2.904-6.534-.507a1.39 1.39 0 0 1-.694-.072c.248-1.775-3.255-.32-3.993-.117-2.038.558-4.136.916-6.205 1.333-1.372.276-2.813.508-4.033 1.23C69.378 4.927 67.1 7.3 69.4 7c-1.147.84-2.776 1.888-2.94 3.443-.165 1.577 1.477 2.5 1.4 4.017-.047 1.086-1.767-.025-.662 4.128 1.656.592 3.173-1.364 4.913.086-.475 1.127 2.1.003 2.696-.174 1.062-.314 2.042-.926 3.125-1.15-1.502.48-2.04 1.623 0 1.256 1.5-.272 2.903-.9 4.445-1.068-.888.42-2.485.854-3.164 1.588-.478.517-.476.3.207.382 2.463.266 4.83-1.378 7.407-.588 2.242.687 2.924 2.974 3.9 4.85 1.067 2.027 2.634 3.78 3.53 5.896 2.035 4.8-.042 10.214 1.468 15.185.698 2.298 2.05 4.578 1.516 7.055-.52 2.403-2.4 4.424-4.08 6.123-1.864 1.896-3.993 3.453-6.054 5.12-1.5 1.222-3.17 2.718-.15 2.02-.257.9.854.398 1.313.17-1.305 1.398.25 1.104 1.195.774.922-.323 1.957-1.064 2.965-.77-.188.42-.564.797-.876 1.117 1.235.445 2.763.818 2.7 2.46-.1 2-2.585 3.326-4.054 4.245-3.866 2.42-7.255 4.453-11.638 5.82-2.257.704-4.47 1.235-6.824 1.478.323.324.818.366 1.328.363-2.735.687-5.675.793-7.894-1.05 1.36 2.704 4.693 2.26 7.286 2.188 3.092-.084 6.5-1.487 9.502-.356 2.554.962 4.8 2.884 5.13 5.675.3 2.732.35 5.72 1.8 8.178 2.043 3.465 4.794-2.315 5.444-4.068.05.866 1.8 2.06 2.38 1.124-.22 1.23-.858 3.164.236 4.12.923.806 2.64.713 3.686.32.135.867 1 1.04 1.744.95-2.905 3.583 4.307.85 5.593.287 2.806-1.23 5.843-2.8 8.257-4.706-.147.028-.3.005-.52.083 1.12-.762 2.34-1.08 3.67-1.3-1.565 1.303-3.385 2.382-5.148 3.398-1.452.838-4.2 1.634-5.205 2.857 1.364.38 4.288-1.797 5.48-2.48 1.883-1.08 3.558-2.4 5.346-3.6.868-.588 1.948-.75 2.763-1.408.34-.275.715-.56.8-1.014.055-.336-.477-.86-.357-1.123.227-.494 4.405.06 3.23-1.467 1.334-.387 3.666-1.942 2.144-3.442.523-.397.826-.767.96-1.114h0z" class="C"/><path d="M70.097 7.2a7.47 7.47 0 0 0 .103 2.935c.23.94.637 1.832 1.227 2.58.582.756 1.347 1.37 2.202 1.823.86.444 1.813.74 2.82.822-1 .15-2.06.005-3.016-.4a6.17 6.17 0 0 1-2.475-1.878 6.16 6.16 0 0 1-1.212-2.859c-.158-1.026-.04-2.1.352-3.022m-1.02 4.52c.493 1.112 1.175 2.045 2.046 2.787.867.748 1.9 1.28 3.066 1.598-1.225.16-2.505-.334-3.453-1.146s-1.628-2.004-1.658-3.238m2.98-2.174c-.023.465.068.878.224 1.26s.378.733.65 1.034c.542.63 1.285 1.092 1.997 1.687a4.61 4.61 0 0 1-1.312-.437 3.8 3.8 0 0 1-1.13-.856c-.32-.372-.558-.817-.65-1.3-.097-.475-.04-1 .222-1.4m1.67-1.255c.044.6 0 1.096-.022 1.617l-.055.762c-.003.097.01.218.046.32s.075.2.238.188a.22.22 0 0 1-.223.105c-.098-.015-.176-.06-.245-.112a.89.89 0 0 1-.275-.425 2.94 2.94 0 0 1-.082-.873c.042-.57.213-1.143.617-1.583m43.15 13.958c.758 1.67.88 3.616.504 5.43-.384 1.8-1.28 3.545-2.647 4.766.998-1.523 1.705-3.16 2.064-4.9.37-1.726.38-3.5.08-5.306m1.55.487c.62 1.337.74 2.892.486 4.357-.264 1.462-.912 2.882-1.956 3.923.65-1.3 1.13-2.638 1.37-4.027.253-1.387.26-2.798.1-4.253m.87 8.626c-.082.5-.357.9-.682 1.218-.338.314-.738.574-1.242.637.23-.45.523-.76.83-1.065.32-.294.64-.574 1.095-.8" class="I"/><path d="M75.48 49.84c1.613-.092 3.204-.408 4.784-.746 3.302-.706 6.58-1.513 9.834-2.42l4.857-1.432c2.754-.858 5.524-1.665 8.31-2.414l4.184-1.078c.624-.154 1.23-.4 1.785-.584.393-.137.746-.27 1.082.132.943 1.126-1.067 2.607-1.725 3.482-.998 1.328-1.9 2.73-2.695 4.188-1.372 2.517-2.422 5.193-3.63 7.792-1.665 3.58-3.63 7.01-5.593 10.437-.504.878-1 1.765-1.648 2.554-.662.818-1.502 1.428-2.215 2.202-3.172 3.448-6.34 6.926-9.943 9.934-2.146 1.79-4.452 3.422-6.306 5.513-1.3 1.455-2.34 3.1-3.64 4.558-.16.18-.352.367-.592.373-.325.008-.55-.313-.7-.595l-8.703-15.28c-2.06-3.616-3.563-8.326-2.987-12.55.096-.703.26-1.418.117-2.113-.118-.567-.432-1.07-.682-1.59-.486-1.014-.733-2.13-.795-3.25-.077-1.386.06-2.882.544-4.183.52-1.392 1.3-2.672 2.054-3.94.232-.385.52-1.008.96-1.166.484-.174 1.07-.17 1.57-.085 1.883.32 3.7 1.207 5.56 1.64 2.037.473 4.13.737 6.224.617" fill="#881a1f"/><path d="M62.73 54.273c-.05.706.123 1.385.936 1.627.22.065.45.075.68.084l1.863.075c.15.006.3.016.426.1s.15.302.024.382c-.04.027-.1.035-.14.042-.745.118-1.504.154-2.257.22-1.302.113-2.727.4-4.024.187-.685-.113-1.5-.36-1.655-1.037-.06-.28.02-.57.1-.843.74-2.258 2.13-4.253 2.945-6.486.313-.86.92-.5 1.6-.3.602.185.733.5.703 1.12-.062 1.3-.668 2.484-1 3.72-.092.332-.184.72-.2 1.1m-3.897 7.644a7.41 7.41 0 0 1 .304 1.227c.105.743.032 1.5.04 2.25.014 1.62.396 3.2.805 4.78 1.095 4.196 3.825 8.026 5.928 11.78l5.56 9.927c.113.202.248.422.47.5.324.098.655-.202.737-.532 0-1.748-.085-3.13.232-4.892.06-.33.12-.666.264-.97.203-.43.557-.768.903-1.095l4.98-4.7c.313-.296.638-.6.775-1.017s.017-.938-.374-1.118c-.202-.093-.435-.08-.656-.058-1.194.112-2.394.367-3.58.2-3.174-.446-2.428-3.74-4.7-5.168-1.227-.775-2.82-.854-2.22-2.7.272-.84.77-1.6 1.124-2.4s.56-1.754.22-2.57c-.345-.828-1.162-1.34-1.882-1.875-.856-.637-1.63-1.376-2.404-2.112-.7-.667-1-1.16-1.138-2.102-.047-.352-.1-.733-.37-.975-.382-.356-.984-.248-1.5-.163-.692.115-1.397.147-2.097.097-.644-.046-1.967-.4-2.224.475-.1.317-.01.656.08.974a31.36 31.36 0 0 0 .467 1.53l.248.738" fill="#d8232a"/><path d="M94.164 72.105c-1.61 2.12-3.625 3.978-5.65 5.674l-7.973 6.524-4.44 4.15c-.136.112-.277.224-.44.285.577-.96 1.522-1.632 2.306-2.433l1.432-1.617c1.203-1.308 2.645-2.44 3.988-3.6l4.027-3.65c2.08-1.787 3.874-3.675 5.596-5.817 1.38-1.716 2.596-3.46 3.646-5.416l3.254-5.88 1.285-1.908c.533-.89.95-1.853 1.392-2.79l1.09-2.293.158-.33c.237-.495.475-.993.784-1.446-.46 1.702-1.114 3.325-1.835 4.93l-1.672 3.46-1.82 3.347-3.623 6.514c-.443.798-.95 1.56-1.505 2.29" class="K"/><path d="M95.077 52.74c-1.772.942-3.67 1.627-5.463 2.525-.77.386-1.535.822-2.12 1.455s-.973 1.497-.86 2.35c.04.3.148.602.375.8.538.47 1.374.134 1.978-.247 1.608-1.012 3.077-2.225 4.542-3.434 2.58-2.13 5.167-4.267 7.5-6.666.735-.755 1.445-1.537 2.24-2.226 1.025-.886 2.33-1.548 3.26-2.52-.886.13-1.748.948-2.45 1.464-1 .728-1.95 1.496-2.915 2.26-1.94 1.536-3.897 3.074-6.1 4.24m-2.518-3.406c-.183.074-.392.305-.232.42.045.032.103.034.158.032.305-.01.597-.123.88-.234l4.36-1.703 2.02-.856c-.965-.177-2.6.68-3.538.994l-3.65 1.348m-22.3 3.34c.152.342.316.688.572.962.427.458 1.056.665 1.668.798 1.913.416 3.93.278 5.807-.28s3.618-1.526 5.162-2.73l.806-.693c0-.06.253-.263.3-.315l.298-.357.518-.736c.308-.524.578-1.118.824-1.623l-1.536.393-.76.176-.884.206-3.255.73c-2.317.517-4.644.764-6.58.62-.582.014-1.223-.12-1.796-.195l-.876-.143c-.095-.013-1.373-.223-1.386-.295.04.697.404 1.838.587 2.333.147.398.36.763.533 1.15" fill="#d8232a"/><path d="M130.228 34.492c.845.62 1.28 1.658 1.51 2.68l.59 3.087c.297 1.005.884 1.995 1.834 2.437.07.032.143.064.187.126.144.2-.14.44-.382.486-.717.14-1.468-.16-2.013-.646s-.9-1.14-1.207-1.808c-.177-.397-.335-.81-.59-1.16s-.63-.645-1.063-.69c-.293-.03-.616.048-.862-.113-.122-.08-.203-.207-.28-.33l-.596-.953c-.27-.433-.547-.877-.658-1.375-.165-.74.11-1.95.894-2.267.767-.31 2.02.073 2.64.528" class="C"/><path d="M130.776 35.23c.397.563.616 1.23.82 1.888l.315 1.13c.24 1.064.302 2.24 1 3.077-.334-.024-.548-.358-.692-.66-.378-.798-.65-1.645-.808-2.514-.075-.415-.125-.838-.27-1.234a2.76 2.76 0 0 0-1.41-1.542c-.33-.155-.75-.262-.933-.6-.134-.254-.105-.636.226-.687.607-.095 1.445.72 1.75 1.152" class="K"/><path d="M87.103 49.956c.37-.083.755-.107 1.128-.2l1.105-.276 2.05-.517 4.267-1.018c.225-.076.2-.44-.06-.432-1.474.048-2.953.472-4.374.85l-2.185.643-1.073.4c-.314.132-.596.3-.903.446-.06.027-.016.117.044.103M66.235 77.37c1.463.176 2.93.126 4.4-.067a17.58 17.58 0 0 0 2.067-.4c.695-.187 1.42-.383 2.046-.75.337-.197.105-.68-.256-.607-.706.142-1.383.42-2.076.613l-1.948.493c-1.388.3-2.807.47-4.224.582-.096.007-.093.135 0 .146" class="C"/><path d="M94.743 45.242l4.725-1.28 4.764-1.13 4.587-1.27 2.41-.712c.812-.237 1.66-.567 2.517-.404.367.07.527-.483.156-.565-1.43-.316-3.016.365-4.385.726l-4.957 1.417-4.768 1.34-5.07 1.52c-.055.018-.033.37.024.357" class="I"/><path d="M61.156 65.65c-.2.484-.14 1.03-.118 1.546.025.543.098 1.085.183 1.62.165 1.05.418 2.118.902 3.07.77 1.513 2.176 3.127 3.938 3.4.33.05.62-.427.252-.597-.748-.346-1.466-.74-2.056-1.325-.597-.592-1.057-1.3-1.41-2.06-.414-.89-.7-1.817-.896-2.777l-.27-1.505c-.1-.477-.133-.977-.402-1.4-.034-.052-.102-.037-.123.016" class="C"/><path d="M67.167 47.537c1.113.6 2.306 1.078 3.55 1.32 1.26.245 2.58.204 3.848.02.55-.08.5-.952-.04-.867-1.226.19-2.443.18-3.678.1s-2.465-.288-3.642-.68c-.062-.02-.094.075-.04.105" class="I"/><path d="M78.88 49.098c-2.79.697-5.687.822-8.505.192-2.63-.588-5.08-2.088-7.82-2.115-.092-.001-.11.135-.022.16 2.15.592 4.16 1.52 6.266 2.242 2.035.7 4.162 1.09 6.318 1.03 2.235-.064 4.35-.652 6.49-1.25l6.92-1.93 7.996-2.357c.43-.162.265-.77-.2-.688-3 .55-5.95 1.53-8.89 2.35" class="C"/><path d="M63.333 46.528c-.188.153-.38.304-.52.502l-.07.112c-.024.045-.045.092-.066.14l-.33.65-.31.66-.14.288-1.37 2.94-1.123 2.61c-.348.834-.497 1.732.1 2.486.21.266.588-.11.375-.374-.664-.82.01-2.035.418-2.82l1.198-2.408 1.158-2.473c.308-.71.753-1.504.718-2.296-.001-.02-.023-.028-.038-.015" class="F"/><path d="M128.135 35.167c.435.82.235 1.862-.265 2.646s-1.254 1.363-1.993 1.927l-3.345 2.55c-1.328 1.012-2.668 2.037-3.725 3.33-.062-.836-.125-1.68-.37-2.48s-.687-1.57-1.374-2.05c-.55-.385-2.215-.85-2.203-1.723.01-.684 1.04-.562 1.534-.586 2.492-.123 5.015-1.074 7.354-1.89l4.385-1.72" fill="#881a1f"/><path d="M108.547 43.894c.078.206.206.397.332.58.113.163.29.226.488.227.56.002.99-.294 1.2-.87.152-.417.263-.85.393-1.275.108-.355.236-.703.52-.96.246-.224.555-.342.858-.46a5.62 5.62 0 0 1 2.363-.387c.67.037 1.306.202 1.845.633.302.242.527.55.73.875.58.914.864 1.928.977 2.994.132 1.24.02 2.463-.3 3.668-.263 1-.657 1.922-1.234 2.772a12.65 12.65 0 0 1-5.85 4.612c-.862.33-1.796.563-2.703.4-.306-.055-.607-.156-.857-.34-.24-.18-.47-.446-.77-.42.075.396.334.5.614.72.32.252.603.486.993.632.48.18.982.257 1.493.284a6.08 6.08 0 0 0 2.869-.531c.8-.36 1.514-.85 2.174-1.426 1.235-1.074 2.212-2.356 3.038-3.76.443-.754.82-1.54 1.073-2.38.236-.782.384-1.58.455-2.397a12.55 12.55 0 0 0-.113-3.115c-.14-.868-.32-1.727-.728-2.517-.557-1.082-1.338-1.946-2.487-2.422a4.68 4.68 0 0 0-1.675-.337c-1.393-.04-2.693.314-3.904 1-1.083.605-1.694 1.543-1.887 2.763-.077.488-.09.975.088 1.442" class="K"/><path d="M110.582 41.204a3.17 3.17 0 0 1 1.003-.868c.407-.23.893-.335 1.337-.483.18-.06.365-.123.515-.24.027-.02.055-.047.06-.082.006-.047-.035-.087-.075-.112-.196-.127-.445-.136-.677-.106-.487.062-1.02.12-1.478.312-.812.34-1.58.804-2.053 1.574-.304.496-.406 1.234-.41 1.812-.004.37.082.972.596.807.33-.105.44-.93.537-1.22.164-.487.34-.975.647-1.393" class="F"/><path d="M116.81 46.998c-.194-.785-.433-1.55-.795-2.275-.293-.59-.65-1.134-1.156-1.566-.383-.328-.817-.542-1.326-.585-.246-.02-.442.084-.588.268-.158.198-.295.413-.44.622l-.136.214c-.21.345-.507.573-.903.673-.135.034-.267.086-.395.14-.292.126-.377.282-.353.6.03.396.236.692.524.94.376.323.815.543 1.257.76l1.673.823c.293.15.56.348.785.597.428.474.5 1.064.175 1.606-.418.676-1.034 1.07-1.825 1.186-.14.02-.27-.012-.338-.126-.235-.385-.6-.418-.995-.406-.52.015-1.034.05-1.516.264a1.66 1.66 0 0 0-.416.283c-.128.115-.15.28-.117.448.02.1.08.153.182.12.112-.036.22-.084.33-.132l.472-.22c.105-.043.217-.064.3.047.06.082.038.198-.066.31a1.21 1.21 0 0 1-.218.194l-1.293.81c-.093.053-.197.1-.305.118-.163.114-.33.23-.354.387a.41.41 0 0 0 .027.207c.217.124.44.177.748.054.46-.184.69-.567 1.03-.9.38-.37.788-.522 1.248-.757.473-.24.812.202.774.626.568-.196 1.08-.516 1.615-.782.355-.177.697-.386 1.032-.6.62-.4 1-.988 1.245-1.67.266-.746.307-1.5.115-2.275" class="K"/><path d="M119.193 49.2l-.102.338c-.245.9-.607 1.734-1.007 2.562-.7 1.445-1.552 2.79-2.64 3.977-.95 1.037-2.03 1.904-3.318 2.485-.913.412-1.875.6-2.88.554-.755-.034-1.472-.203-2.106-.627-.6-.394-1.076-.894-1.377-1.55-.136-.297-.206-.604-.06-.92.083-.183.224-.318.4-.424.106-.07.218-.052.296.048.1.127.19.26.276.397.358.582.84 1.015 1.484 1.257.48.18.982.257 1.493.284a6.08 6.08 0 0 0 2.869-.531c.8-.36 1.514-.85 2.174-1.426 1.235-1.074 2.212-2.356 3.038-3.76.443-.754.82-1.54 1.073-2.38.236-.782.384-1.58.455-2.397a12.55 12.55 0 0 0-.113-3.115c-.14-.868-.32-1.727-.728-2.517-.557-1.082-1.338-1.946-2.487-2.422a4.68 4.68 0 0 0-1.675-.337c-1.393-.04-2.693.314-3.904 1-1.083.605-1.694 1.543-1.887 2.763-.077.488-.09.975.088 1.442.078.206.206.397.332.58.113.163.29.226.488.227.56.002.99-.294 1.2-.87.152-.417.263-.85.393-1.275.108-.355.236-.703.52-.96.246-.224.555-.342.858-.46a5.62 5.62 0 0 1 2.363-.387c.67.037 1.306.202 1.845.633.302.242.527.55.73.875.58.914.864 1.928.977 2.994.132 1.24.02 2.463-.3 3.668-.263 1-.657 1.922-1.234 2.772a6.64 6.64 0 0 1-.957 1.118.49.49 0 0 1-.445.132 3.85 3.85 0 0 1-.495-.117c-.474-.154-.96-.168-1.446-.105-.388.05-.774.136-1.156.226-.254.06-.448.236-.632.413l-.712.7c-.114.103-.256.18-.393.252-.06.03-.14.036-.2.03-.292-.026-.39-.187-.297-.464a1.39 1.39 0 0 1 .713-.795c.33-.17.682-.298 1.032-.42.303-.107.617-.18.926-.273.632-.187 1.186-.544 1.77-.833.355-.177.697-.386 1.032-.6.62-.4 1-.988 1.245-1.67.266-.746.307-1.5.115-2.275-.194-.785-.433-1.55-.795-2.275-.293-.59-.65-1.134-1.156-1.566-.383-.328-.817-.542-1.326-.585-.246-.02-.442.084-.588.268-.158.198-.295.413-.44.622l-.136.214c-.21.345-.507.573-.903.673-.135.034-.267.086-.395.14-.292.126-.377.282-.353.6.03.396.236.692.524.94.376.323.815.543 1.257.76l1.673.823c.293.15.56.348.785.597.428.474.5 1.064.175 1.606-.418.676-1.034 1.07-1.825 1.186-.14.02-.27-.012-.338-.126-.235-.385-.6-.418-.995-.406-.52.015-1.034.05-1.516.264a1.66 1.66 0 0 0-.416.283c-.128.115-.15.28-.117.448.02.1.08.153.182.12.112-.036.22-.084.33-.132l.472-.22c.105-.043.217-.064.3.047.06.082.038.198-.066.31a1.21 1.21 0 0 1-.218.194l-1.293.81c-.168.096-.372.14-.565.176-.244.046-.45-.044-.597-.25-.15-.212-.143-.444-.015-.647.157-.25.346-.48.537-.704l.624-.67c.27-.294.45-.624.5-1.033.07-.6.125-1.197.04-1.798-.066-.457-.206-.888-.545-1.22a1.95 1.95 0 0 0-.472-.336c-.223-.113-.45-.046-.63.105l-.73.67-.32.272c-.398.287-.743.093-.915-.267-.155-.323-.1-.664.014-.98l.593-1.5.717-1.915c.298-.742.663-1.447 1.214-2.04.422-.455.932-.787 1.48-1.064 1.105-.56 2.283-.816 3.518-.822.228-.001.457.023.685.035.042.002.083-.001.125-.002l.626.114c.022.013.042.028.064.037.2.09.43.157.628.27 1.336.757 2.213 1.896 2.727 3.326.27.75.385 1.534.474 2.32a13.41 13.41 0 0 1 .031 2.89l-.04.49-.21 1.153" class="C"/><g class="K"><path d="M127.683 34.952c.065.2-.15.368-.337.466-2.656 1.394-5.4 2.526-8.207 3.488l-.316.102c-.173.053-.357.1-.533.06a.57.57 0 0 1-.416-.615c.083-.547 2.078-.846 2.6-1l3.24-1c.28-.088 4.056-1.2 3.958-1.5m-20.758 36.885c-.58.67-1.25 1.257-1.918 1.84-2.514 2.2-5.07 4.4-8.082 5.84-.002-.448.325-.824.643-1.14 2.287-2.27 5.15-3.9 7.34-6.273s3.33-5.3 4.95-8.025c.053-.088.107-.178.2-.236s.205-.075.285-.01c.412.33-.162 1.737-.3 2.135-.258.8-.588 1.576-.954 2.332-.593 1.227-1.267 2.5-2.162 3.538"/><path d="M123.41 41.14c-1.387.94-2.584 2.16-3.502 3.562l1.95-1.747 1.346-1.102c.48-.328 1.005-.59 1.5-.894 1.05-.644 2.076-1.516 2.767-2.545-.282-.001-.55.39-.77.572-.34.285-.706.538-1.078.78l-2.214 1.376"/></g><g fill="#f5bb3a"><path d="M48.26 72.56c-.14.464-.77.684-1.4.492s-1.046-.724-.906-1.188.77-.684 1.4-.492 1.046.724.906 1.188m-13.664-4.318c.02.6-.25 1.097-.6 1.108s-.65-.467-.67-1.068.25-1.097.6-1.108.65.467.67 1.068m4.25 8.533c-.135.448-.8.644-1.5.437s-1.136-.737-1.002-1.185.8-.644 1.5-.437 1.136.737 1 1.184M46.412 65.3c-.07.428.35.916.995 1.12.684.218 1.354.034 1.496-.412.06-.193.01-.402-.12-.596-.8.002-1.582-.057-2.37-.113m18.52 28.167a1.92 1.92 0 0 0-.437.08c-.008.335.073.656.15 1 .043.187.097.366.165.547l.026.073.197.001c.716-.043 1.275-.456 1.247-.923s-.632-.8-1.35-.767m-11.362-3.852c-.135.448-.8.644-1.5.437s-1.136-.737-1.002-1.185.8-.644 1.5-.437 1.136.737 1.002 1.185m-5.11-8.9c-.144.48-.78.713-1.42.52s-1.042-.737-.897-1.217.78-.713 1.42-.52 1.042.737.898 1.217m7.088 4.374c-.144.48-.78.713-1.42.52s-1.042-.737-.897-1.217.78-.713 1.42-.52 1.042.737.898 1.216"/><path d="M54.647 76.073c-.144.48-.78.713-1.42.52s-1.042-.737-.897-1.216.78-.713 1.42-.52 1.042.737.898 1.217M41.695 86.618l.773-.187 1.12-.375a.59.59 0 0 0-.037-.251c-.174-.398-.873-.476-1.562-.175-.597.26-1 .72-.97 1.1l.675-.1"/><path d="M40.6 66.986c.167.405-.135.914-.675 1.137s-1.113.076-1.28-.33.135-.914.674-1.137 1.113-.076 1.28.33M60.1 92.9c.167.405-.135.914-.675 1.137s-1.113.075-1.28-.33.135-.914.675-1.137 1.113-.075 1.28.33"/></g><path d="M24.47 42.805c.012 0 .012-.018 0-.018s-.01.018 0 .018" class="F"/></g><g class="P"><rect x="2" y="401" width="30" height="30" rx="2" class="D"/><path d="M7.094 411.566h5.77c.205 0 .366-.04.482-.12l.174-.12c.027 0 .05.008.065.024s.028.042.038.08l.7 3.227v.04a.15.15 0 0 1-.038.103.11.11 0 0 1-.085.04c-.082 0-.174-.14-.277-.417s-.215-.517-.338-.718a4.16 4.16 0 0 0-1.148-1.213 3.89 3.89 0 0 0-1.504-.619v7.472c0 .378.027.644.082.796a.66.66 0 0 0 .287.352c.118.073.306.123.564.15s.386.093.386.198c0 .06-.018.1-.055.123s-.098.034-.185.034H7.856c-.096 0-.162-.01-.198-.034s-.055-.064-.055-.123c0-.105.118-.17.355-.195s.412-.063.526-.113a.64.64 0 0 0 .338-.349c.066-.16.1-.44.1-.84v-7.472a3.86 3.86 0 0 0-1.504.615 4.06 4.06 0 0 0-1.148 1.217 3.83 3.83 0 0 0-.342.72c-.1.275-.2.414-.273.414-.027 0-.052-.014-.075-.04s-.034-.062-.034-.103v-.04l.8-3.233c.005-.023.018-.044.04-.065s.046-.03.068-.03a1.07 1.07 0 0 1 .167.12c.103.08.256.12.46.12l.003-.001h.01zm12.188.1c-.884 0-1.56.394-2.03 1.183s-.704 1.93-.704 3.425.235 2.636.704 3.425 1.146 1.183 2.03 1.183 1.552-.394 2.017-1.183.697-1.93.697-3.425-.234-2.636-.7-3.425-1.138-1.183-2.013-1.183h-.001zm0-.294c1.422 0 2.597.46 3.524 1.384s1.4 2.095 1.4 3.517-.464 2.6-1.4 3.52-2.102 1.395-3.524 1.395c-.588 0-1.137-.083-1.647-.25a4.61 4.61 0 0 1-1.408-.749 4.64 4.64 0 0 1-1.388-1.706 5.06 5.06 0 0 1-.485-2.211c0-1.422.464-2.594 1.4-3.517s2.107-1.384 3.538-1.384v.001h-.01zm5.77.185h3.637c.105 0 .178.014.22.04s.062.073.062.137c0 .087-.088.146-.263.178s-.306.07-.393.116c-.16.087-.27.205-.335.355s-.096.433-.096.848v6.1c0 .415.032.698.096.85s.178.272.342.36c.073.036.2.072.38.106s.27.095.27.18c0 .068-.017.114-.05.137s-.1.034-.23.034H25.05c-.123 0-.203-.013-.24-.038s-.055-.07-.055-.133c0-.087.088-.147.263-.18a1.61 1.61 0 0 0 .386-.113c.16-.082.273-.202.342-.36s.103-.44.103-.844v-6.44c0-.223-.046-.4-.137-.56a.82.82 0 0 0-.396-.335 1.62 1.62 0 0 0-.267-.062c-.196-.036-.294-.1-.294-.2 0-.064.022-.1.065-.137s.12-.04.23-.04l.002.001z" fill="#000"/></g></g></svg>